<?xml version="1.0" encoding="utf-8" ?>
<svg baseProfile="full" height="300mm" version="1.1" viewBox="0 0 600 300" width="600mm" xmlns="http://www.w3.org/2000/svg" xmlns:ev="http://www.w3.org/2001/xml-events" xmlns:xlink="http://www.w3.org/1999/xlink"><defs /><line stroke="rgb(0%,100%,0%)" stroke-dasharray="1 1 9 1" stroke-width="0.03" x1="0" x2="10" y1="10" y2="10" /><line stroke="rgb(0%,100%,0%)" stroke-dasharray="1 1 9 1" stroke-width="0.03" x1="0" x2="10" y1="50" y2="50" /><line stroke="rgb(0%,100%,0%)" stroke-dasharray="1 1 9 1" stroke-width="0.03" x1="0" x2="10" y1="53" y2="53" /><line stroke="rgb(0%,100%,0%)" stroke-dasharray="1 1 9 1" stroke-width="0.03" x1="0" x2="10" y1="131" y2="131" /><line stroke="rgb(0%,100%,0%)" stroke-dasharray="1 1 9 1" stroke-width="0.03" x1="0" x2="10" y1="134" y2="134" /><line stroke="rgb(0%,100%,0%)" stroke-dasharray="1 1 9 1" stroke-width="0.03" x1="0" x2="10" y1="141" y2="141" /><line stroke="rgb(0%,100%,0%)" stroke-dasharray="1 1 9 1" stroke-width="0.03" x1="0" x2="10" y1="161" y2="161" /><line stroke="rgb(0%,100%,0%)" stroke-dasharray="1 1 9 1" stroke-width="0.03" x1="0" x2="10" y1="181" y2="181" /><line stroke="rgb(0%,100%,0%)" stroke-dasharray="1 1 9 1" stroke-width="0.03" x1="0" x2="10" y1="221" y2="221" /><line stroke="rgb(0%,100%,0%)" stroke-dasharray="1 1 9 1" stroke-width="0.03" x1="10" x2="82" y1="10" y2="10" /><line stroke="rgb(0%,100%,0%)" stroke-dasharray="1 1 9 1" stroke-width="0.03" x1="10" x2="82" y1="50" y2="50" /><line stroke="rgb(0%,100%,0%)" stroke-dasharray="1 1 9 1" stroke-width="0.03" x1="10" x2="82" y1="53" y2="53" /><line stroke="rgb(0%,100%,0%)" stroke-dasharray="1 1 9 1" stroke-width="0.03" x1="10" x2="82" y1="131" y2="131" /><line stroke="rgb(0%,100%,0%)" stroke-dasharray="1 1 9 1" stroke-width="0.03" x1="10" x2="82" y1="134" y2="134" /><line stroke="rgb(0%,100%,0%)" stroke-dasharray="1 1 9 1" stroke-width="0.03" x1="10" x2="82" y1="141" y2="141" /><line stroke="rgb(0%,100%,0%)" stroke-dasharray="1 1 9 1" stroke-width="0.03" x1="10" x2="82" y1="161" y2="161" /><line stroke="rgb(0%,100%,0%)" stroke-dasharray="1 1 9 1" stroke-width="0.03" x1="10" x2="82" y1="181" y2="181" /><line stroke="rgb(0%,100%,0%)" stroke-dasharray="1 1 9 1" stroke-width="0.03" x1="10" x2="82" y1="221" y2="221" /><line stroke="rgb(0%,100%,0%)" stroke-dasharray="1 1 9 1" stroke-width="0.03" x1="82" x2="85" y1="10" y2="10" /><line stroke="rgb(0%,100%,0%)" stroke-dasharray="1 1 9 1" stroke-width="0.03" x1="82" x2="85" y1="50" y2="50" /><line stroke="rgb(0%,100%,0%)" stroke-dasharray="1 1 9 1" stroke-width="0.03" x1="82" x2="85" y1="53" y2="53" /><line stroke="rgb(0%,100%,0%)" stroke-dasharray="1 1 9 1" stroke-width="0.03" x1="82" x2="85" y1="131" y2="131" /><line stroke="rgb(0%,100%,0%)" stroke-dasharray="1 1 9 1" stroke-width="0.03" x1="82" x2="85" y1="134" y2="134" /><line stroke="rgb(0%,100%,0%)" stroke-dasharray="1 1 9 1" stroke-width="0.03" x1="82" x2="85" y1="141" y2="141" /><line stroke="rgb(0%,100%,0%)" stroke-dasharray="1 1 9 1" stroke-width="0.03" x1="82" x2="85" y1="161" y2="161" /><line stroke="rgb(0%,100%,0%)" stroke-dasharray="1 1 9 1" stroke-width="0.03" x1="82" x2="85" y1="181" y2="181" /><line stroke="rgb(0%,100%,0%)" stroke-dasharray="1 1 9 1" stroke-width="0.03" x1="82" x2="85" y1="221" y2="221" /><line stroke="rgb(0%,100%,0%)" stroke-dasharray="1 1 9 1" stroke-width="0.03" x1="85" x2="152" y1="10" y2="10" /><line stroke="rgb(0%,100%,0%)" stroke-dasharray="1 1 9 1" stroke-width="0.03" x1="85" x2="152" y1="50" y2="50" /><line stroke="rgb(0%,100%,0%)" stroke-dasharray="1 1 9 1" stroke-width="0.03" x1="85" x2="152" y1="53" y2="53" /><line stroke="rgb(0%,100%,0%)" stroke-dasharray="1 1 9 1" stroke-width="0.03" x1="85" x2="152" y1="131" y2="131" /><line stroke="rgb(0%,100%,0%)" stroke-dasharray="1 1 9 1" stroke-width="0.03" x1="85" x2="152" y1="134" y2="134" /><line stroke="rgb(0%,100%,0%)" stroke-dasharray="1 1 9 1" stroke-width="0.03" x1="85" x2="152" y1="141" y2="141" /><line stroke="rgb(0%,100%,0%)" stroke-dasharray="1 1 9 1" stroke-width="0.03" x1="85" x2="152" y1="161" y2="161" /><line stroke="rgb(0%,100%,0%)" stroke-dasharray="1 1 9 1" stroke-width="0.03" x1="85" x2="152" y1="181" y2="181" /><line stroke="rgb(0%,100%,0%)" stroke-dasharray="1 1 9 1" stroke-width="0.03" x1="85" x2="152" y1="221" y2="221" /><line stroke="rgb(0%,100%,0%)" stroke-dasharray="1 1 9 1" stroke-width="0.03" x1="152" x2="219" y1="10" y2="10" /><line stroke="rgb(0%,100%,0%)" stroke-dasharray="1 1 9 1" stroke-width="0.03" x1="152" x2="219" y1="50" y2="50" /><line stroke="rgb(0%,100%,0%)" stroke-dasharray="1 1 9 1" stroke-width="0.03" x1="152" x2="219" y1="53" y2="53" /><line stroke="rgb(0%,100%,0%)" stroke-dasharray="1 1 9 1" stroke-width="0.03" x1="152" x2="219" y1="131" y2="131" /><line stroke="rgb(0%,100%,0%)" stroke-dasharray="1 1 9 1" stroke-width="0.03" x1="152" x2="219" y1="134" y2="134" /><line stroke="rgb(0%,100%,0%)" stroke-dasharray="1 1 9 1" stroke-width="0.03" x1="152" x2="219" y1="141" y2="141" /><line stroke="rgb(0%,100%,0%)" stroke-dasharray="1 1 9 1" stroke-width="0.03" x1="152" x2="219" y1="161" y2="161" /><line stroke="rgb(0%,100%,0%)" stroke-dasharray="1 1 9 1" stroke-width="0.03" x1="152" x2="219" y1="181" y2="181" /><line stroke="rgb(0%,100%,0%)" stroke-dasharray="1 1 9 1" stroke-width="0.03" x1="152" x2="219" y1="221" y2="221" /><line stroke="rgb(0%,100%,0%)" stroke-dasharray="1 1 9 1" stroke-width="0.03" x1="219" x2="222" y1="10" y2="10" /><line stroke="rgb(0%,100%,0%)" stroke-dasharray="1 1 9 1" stroke-width="0.03" x1="219" x2="222" y1="50" y2="50" /><line stroke="rgb(0%,100%,0%)" stroke-dasharray="1 1 9 1" stroke-width="0.03" x1="219" x2="222" y1="53" y2="53" /><line stroke="rgb(0%,100%,0%)" stroke-dasharray="1 1 9 1" stroke-width="0.03" x1="219" x2="222" y1="131" y2="131" /><line stroke="rgb(0%,100%,0%)" stroke-dasharray="1 1 9 1" stroke-width="0.03" x1="219" x2="222" y1="134" y2="134" /><line stroke="rgb(0%,100%,0%)" stroke-dasharray="1 1 9 1" stroke-width="0.03" x1="219" x2="222" y1="141" y2="141" /><line stroke="rgb(0%,100%,0%)" stroke-dasharray="1 1 9 1" stroke-width="0.03" x1="219" x2="222" y1="161" y2="161" /><line stroke="rgb(0%,100%,0%)" stroke-dasharray="1 1 9 1" stroke-width="0.03" x1="219" x2="222" y1="181" y2="181" /><line stroke="rgb(0%,100%,0%)" stroke-dasharray="1 1 9 1" stroke-width="0.03" x1="219" x2="222" y1="221" y2="221" /><line stroke="rgb(0%,100%,0%)" stroke-dasharray="1 1 9 1" stroke-width="0.03" x1="222" x2="297" y1="10" y2="10" /><line stroke="rgb(0%,100%,0%)" stroke-dasharray="1 1 9 1" stroke-width="0.03" x1="222" x2="297" y1="50" y2="50" /><line stroke="rgb(0%,100%,0%)" stroke-dasharray="1 1 9 1" stroke-width="0.03" x1="222" x2="297" y1="53" y2="53" /><line stroke="rgb(0%,100%,0%)" stroke-dasharray="1 1 9 1" stroke-width="0.03" x1="222" x2="297" y1="131" y2="131" /><line stroke="rgb(0%,100%,0%)" stroke-dasharray="1 1 9 1" stroke-width="0.03" x1="222" x2="297" y1="134" y2="134" /><line stroke="rgb(0%,100%,0%)" stroke-dasharray="1 1 9 1" stroke-width="0.03" x1="222" x2="297" y1="141" y2="141" /><line stroke="rgb(0%,100%,0%)" stroke-dasharray="1 1 9 1" stroke-width="0.03" x1="222" x2="297" y1="161" y2="161" /><line stroke="rgb(0%,100%,0%)" stroke-dasharray="1 1 9 1" stroke-width="0.03" x1="222" x2="297" y1="181" y2="181" /><line stroke="rgb(0%,100%,0%)" stroke-dasharray="1 1 9 1" stroke-width="0.03" x1="222" x2="297" y1="221" y2="221" /><line stroke="rgb(0%,100%,0%)" stroke-dasharray="1 1 9 1" stroke-width="0.03" x1="297" x2="300" y1="10" y2="10" /><line stroke="rgb(0%,100%,0%)" stroke-dasharray="1 1 9 1" stroke-width="0.03" x1="297" x2="300" y1="50" y2="50" /><line stroke="rgb(0%,100%,0%)" stroke-dasharray="1 1 9 1" stroke-width="0.03" x1="297" x2="300" y1="53" y2="53" /><line stroke="rgb(0%,100%,0%)" stroke-dasharray="1 1 9 1" stroke-width="0.03" x1="297" x2="300" y1="131" y2="131" /><line stroke="rgb(0%,100%,0%)" stroke-dasharray="1 1 9 1" stroke-width="0.03" x1="297" x2="300" y1="134" y2="134" /><line stroke="rgb(0%,100%,0%)" stroke-dasharray="1 1 9 1" stroke-width="0.03" x1="297" x2="300" y1="141" y2="141" /><line stroke="rgb(0%,100%,0%)" stroke-dasharray="1 1 9 1" stroke-width="0.03" x1="297" x2="300" y1="161" y2="161" /><line stroke="rgb(0%,100%,0%)" stroke-dasharray="1 1 9 1" stroke-width="0.03" x1="297" x2="300" y1="181" y2="181" /><line stroke="rgb(0%,100%,0%)" stroke-dasharray="1 1 9 1" stroke-width="0.03" x1="297" x2="300" y1="221" y2="221" /><line stroke="rgb(0%,100%,0%)" stroke-dasharray="1 1 9 1" stroke-width="0.03" x1="300" x2="367" y1="10" y2="10" /><line stroke="rgb(0%,100%,0%)" stroke-dasharray="1 1 9 1" stroke-width="0.03" x1="300" x2="367" y1="50" y2="50" /><line stroke="rgb(0%,100%,0%)" stroke-dasharray="1 1 9 1" stroke-width="0.03" x1="300" x2="367" y1="53" y2="53" /><line stroke="rgb(0%,100%,0%)" stroke-dasharray="1 1 9 1" stroke-width="0.03" x1="300" x2="367" y1="131" y2="131" /><line stroke="rgb(0%,100%,0%)" stroke-dasharray="1 1 9 1" stroke-width="0.03" x1="300" x2="367" y1="134" y2="134" /><line stroke="rgb(0%,100%,0%)" stroke-dasharray="1 1 9 1" stroke-width="0.03" x1="300" x2="367" y1="141" y2="141" /><line stroke="rgb(0%,100%,0%)" stroke-dasharray="1 1 9 1" stroke-width="0.03" x1="300" x2="367" y1="161" y2="161" /><line stroke="rgb(0%,100%,0%)" stroke-dasharray="1 1 9 1" stroke-width="0.03" x1="300" x2="367" y1="181" y2="181" /><line stroke="rgb(0%,100%,0%)" stroke-dasharray="1 1 9 1" stroke-width="0.03" x1="300" x2="367" y1="221" y2="221" /><line stroke="rgb(0%,100%,0%)" stroke-dasharray="1 1 9 1" stroke-width="0.03" x1="367" x2="434" y1="10" y2="10" /><line stroke="rgb(0%,100%,0%)" stroke-dasharray="1 1 9 1" stroke-width="0.03" x1="367" x2="434" y1="50" y2="50" /><line stroke="rgb(0%,100%,0%)" stroke-dasharray="1 1 9 1" stroke-width="0.03" x1="367" x2="434" y1="53" y2="53" /><line stroke="rgb(0%,100%,0%)" stroke-dasharray="1 1 9 1" stroke-width="0.03" x1="367" x2="434" y1="131" y2="131" /><line stroke="rgb(0%,100%,0%)" stroke-dasharray="1 1 9 1" stroke-width="0.03" x1="367" x2="434" y1="134" y2="134" /><line stroke="rgb(0%,100%,0%)" stroke-dasharray="1 1 9 1" stroke-width="0.03" x1="367" x2="434" y1="141" y2="141" /><line stroke="rgb(0%,100%,0%)" stroke-dasharray="1 1 9 1" stroke-width="0.03" x1="367" x2="434" y1="161" y2="161" /><line stroke="rgb(0%,100%,0%)" stroke-dasharray="1 1 9 1" stroke-width="0.03" x1="367" x2="434" y1="181" y2="181" /><line stroke="rgb(0%,100%,0%)" stroke-dasharray="1 1 9 1" stroke-width="0.03" x1="367" x2="434" y1="221" y2="221" /><line stroke="rgb(0%,100%,0%)" stroke-dasharray="1 1 9 1" stroke-width="0.03" x1="434" x2="437" y1="10" y2="10" /><line stroke="rgb(0%,100%,0%)" stroke-dasharray="1 1 9 1" stroke-width="0.03" x1="434" x2="437" y1="50" y2="50" /><line stroke="rgb(0%,100%,0%)" stroke-dasharray="1 1 9 1" stroke-width="0.03" x1="434" x2="437" y1="53" y2="53" /><line stroke="rgb(0%,100%,0%)" stroke-dasharray="1 1 9 1" stroke-width="0.03" x1="434" x2="437" y1="131" y2="131" /><line stroke="rgb(0%,100%,0%)" stroke-dasharray="1 1 9 1" stroke-width="0.03" x1="434" x2="437" y1="134" y2="134" /><line stroke="rgb(0%,100%,0%)" stroke-dasharray="1 1 9 1" stroke-width="0.03" x1="434" x2="437" y1="141" y2="141" /><line stroke="rgb(0%,100%,0%)" stroke-dasharray="1 1 9 1" stroke-width="0.03" x1="434" x2="437" y1="161" y2="161" /><line stroke="rgb(0%,100%,0%)" stroke-dasharray="1 1 9 1" stroke-width="0.03" x1="434" x2="437" y1="181" y2="181" /><line stroke="rgb(0%,100%,0%)" stroke-dasharray="1 1 9 1" stroke-width="0.03" x1="434" x2="437" y1="221" y2="221" /><line stroke="rgb(0%,100%,0%)" stroke-dasharray="1 1 9 1" stroke-width="0.03" x1="437" x2="512" y1="10" y2="10" /><line stroke="rgb(0%,100%,0%)" stroke-dasharray="1 1 9 1" stroke-width="0.03" x1="437" x2="512" y1="50" y2="50" /><line stroke="rgb(0%,100%,0%)" stroke-dasharray="1 1 9 1" stroke-width="0.03" x1="437" x2="512" y1="53" y2="53" /><line stroke="rgb(0%,100%,0%)" stroke-dasharray="1 1 9 1" stroke-width="0.03" x1="437" x2="512" y1="131" y2="131" /><line stroke="rgb(0%,100%,0%)" stroke-dasharray="1 1 9 1" stroke-width="0.03" x1="437" x2="512" y1="134" y2="134" /><line stroke="rgb(0%,100%,0%)" stroke-dasharray="1 1 9 1" stroke-width="0.03" x1="437" x2="512" y1="141" y2="141" /><line stroke="rgb(0%,100%,0%)" stroke-dasharray="1 1 9 1" stroke-width="0.03" x1="437" x2="512" y1="161" y2="161" /><line stroke="rgb(0%,100%,0%)" stroke-dasharray="1 1 9 1" stroke-width="0.03" x1="437" x2="512" y1="181" y2="181" /><line stroke="rgb(0%,100%,0%)" stroke-dasharray="1 1 9 1" stroke-width="0.03" x1="437" x2="512" y1="221" y2="221" /><line stroke="rgb(0%,100%,0%)" stroke-dasharray="1 1 9 1" stroke-width="0.03" x1="10" x2="10" y1="0" y2="10" /><line stroke="rgb(0%,100%,0%)" stroke-dasharray="1 1 9 1" stroke-width="0.03" x1="82" x2="82" y1="0" y2="10" /><line stroke="rgb(0%,100%,0%)" stroke-dasharray="1 1 9 1" stroke-width="0.03" x1="85" x2="85" y1="0" y2="10" /><line stroke="rgb(0%,100%,0%)" stroke-dasharray="1 1 9 1" stroke-width="0.03" x1="152" x2="152" y1="0" y2="10" /><line stroke="rgb(0%,100%,0%)" stroke-dasharray="1 1 9 1" stroke-width="0.03" x1="219" x2="219" y1="0" y2="10" /><line stroke="rgb(0%,100%,0%)" stroke-dasharray="1 1 9 1" stroke-width="0.03" x1="222" x2="222" y1="0" y2="10" /><line stroke="rgb(0%,100%,0%)" stroke-dasharray="1 1 9 1" stroke-width="0.03" x1="297" x2="297" y1="0" y2="10" /><line stroke="rgb(0%,100%,0%)" stroke-dasharray="1 1 9 1" stroke-width="0.03" x1="300" x2="300" y1="0" y2="10" /><line stroke="rgb(0%,100%,0%)" stroke-dasharray="1 1 9 1" stroke-width="0.03" x1="367" x2="367" y1="0" y2="10" /><line stroke="rgb(0%,100%,0%)" stroke-dasharray="1 1 9 1" stroke-width="0.03" x1="434" x2="434" y1="0" y2="10" /><line stroke="rgb(0%,100%,0%)" stroke-dasharray="1 1 9 1" stroke-width="0.03" x1="437" x2="437" y1="0" y2="10" /><line stroke="rgb(0%,100%,0%)" stroke-dasharray="1 1 9 1" stroke-width="0.03" x1="512" x2="512" y1="0" y2="10" /><line stroke="rgb(0%,100%,0%)" stroke-dasharray="1 1 9 1" stroke-width="0.03" x1="10" x2="10" y1="10" y2="50" /><line stroke="rgb(0%,100%,0%)" stroke-dasharray="1 1 9 1" stroke-width="0.03" x1="82" x2="82" y1="10" y2="50" /><line stroke="rgb(0%,100%,0%)" stroke-dasharray="1 1 9 1" stroke-width="0.03" x1="85" x2="85" y1="10" y2="50" /><line stroke="rgb(0%,100%,0%)" stroke-dasharray="1 1 9 1" stroke-width="0.03" x1="152" x2="152" y1="10" y2="50" /><line stroke="rgb(0%,100%,0%)" stroke-dasharray="1 1 9 1" stroke-width="0.03" x1="219" x2="219" y1="10" y2="50" /><line stroke="rgb(0%,100%,0%)" stroke-dasharray="1 1 9 1" stroke-width="0.03" x1="222" x2="222" y1="10" y2="50" /><line stroke="rgb(0%,100%,0%)" stroke-dasharray="1 1 9 1" stroke-width="0.03" x1="297" x2="297" y1="10" y2="50" /><line stroke="rgb(0%,100%,0%)" stroke-dasharray="1 1 9 1" stroke-width="0.03" x1="300" x2="300" y1="10" y2="50" /><line stroke="rgb(0%,100%,0%)" stroke-dasharray="1 1 9 1" stroke-width="0.03" x1="367" x2="367" y1="10" y2="50" /><line stroke="rgb(0%,100%,0%)" stroke-dasharray="1 1 9 1" stroke-width="0.03" x1="434" x2="434" y1="10" y2="50" /><line stroke="rgb(0%,100%,0%)" stroke-dasharray="1 1 9 1" stroke-width="0.03" x1="437" x2="437" y1="10" y2="50" /><line stroke="rgb(0%,100%,0%)" stroke-dasharray="1 1 9 1" stroke-width="0.03" x1="512" x2="512" y1="10" y2="50" /><line stroke="rgb(0%,100%,0%)" stroke-dasharray="1 1 9 1" stroke-width="0.03" x1="10" x2="10" y1="50" y2="53" /><line stroke="rgb(0%,100%,0%)" stroke-dasharray="1 1 9 1" stroke-width="0.03" x1="82" x2="82" y1="50" y2="53" /><line stroke="rgb(0%,100%,0%)" stroke-dasharray="1 1 9 1" stroke-width="0.03" x1="85" x2="85" y1="50" y2="53" /><line stroke="rgb(0%,100%,0%)" stroke-dasharray="1 1 9 1" stroke-width="0.03" x1="152" x2="152" y1="50" y2="53" /><line stroke="rgb(0%,100%,0%)" stroke-dasharray="1 1 9 1" stroke-width="0.03" x1="219" x2="219" y1="50" y2="53" /><line stroke="rgb(0%,100%,0%)" stroke-dasharray="1 1 9 1" stroke-width="0.03" x1="222" x2="222" y1="50" y2="53" /><line stroke="rgb(0%,100%,0%)" stroke-dasharray="1 1 9 1" stroke-width="0.03" x1="297" x2="297" y1="50" y2="53" /><line stroke="rgb(0%,100%,0%)" stroke-dasharray="1 1 9 1" stroke-width="0.03" x1="300" x2="300" y1="50" y2="53" /><line stroke="rgb(0%,100%,0%)" stroke-dasharray="1 1 9 1" stroke-width="0.03" x1="367" x2="367" y1="50" y2="53" /><line stroke="rgb(0%,100%,0%)" stroke-dasharray="1 1 9 1" stroke-width="0.03" x1="434" x2="434" y1="50" y2="53" /><line stroke="rgb(0%,100%,0%)" stroke-dasharray="1 1 9 1" stroke-width="0.03" x1="437" x2="437" y1="50" y2="53" /><line stroke="rgb(0%,100%,0%)" stroke-dasharray="1 1 9 1" stroke-width="0.03" x1="512" x2="512" y1="50" y2="53" /><line stroke="rgb(0%,100%,0%)" stroke-dasharray="1 1 9 1" stroke-width="0.03" x1="10" x2="10" y1="53" y2="131" /><line stroke="rgb(0%,100%,0%)" stroke-dasharray="1 1 9 1" stroke-width="0.03" x1="82" x2="82" y1="53" y2="131" /><line stroke="rgb(0%,100%,0%)" stroke-dasharray="1 1 9 1" stroke-width="0.03" x1="85" x2="85" y1="53" y2="131" /><line stroke="rgb(0%,100%,0%)" stroke-dasharray="1 1 9 1" stroke-width="0.03" x1="152" x2="152" y1="53" y2="131" /><line stroke="rgb(0%,100%,0%)" stroke-dasharray="1 1 9 1" stroke-width="0.03" x1="219" x2="219" y1="53" y2="131" /><line stroke="rgb(0%,100%,0%)" stroke-dasharray="1 1 9 1" stroke-width="0.03" x1="222" x2="222" y1="53" y2="131" /><line stroke="rgb(0%,100%,0%)" stroke-dasharray="1 1 9 1" stroke-width="0.03" x1="297" x2="297" y1="53" y2="131" /><line stroke="rgb(0%,100%,0%)" stroke-dasharray="1 1 9 1" stroke-width="0.03" x1="300" x2="300" y1="53" y2="131" /><line stroke="rgb(0%,100%,0%)" stroke-dasharray="1 1 9 1" stroke-width="0.03" x1="367" x2="367" y1="53" y2="131" /><line stroke="rgb(0%,100%,0%)" stroke-dasharray="1 1 9 1" stroke-width="0.03" x1="434" x2="434" y1="53" y2="131" /><line stroke="rgb(0%,100%,0%)" stroke-dasharray="1 1 9 1" stroke-width="0.03" x1="437" x2="437" y1="53" y2="131" /><line stroke="rgb(0%,100%,0%)" stroke-dasharray="1 1 9 1" stroke-width="0.03" x1="512" x2="512" y1="53" y2="131" /><line stroke="rgb(0%,100%,0%)" stroke-dasharray="1 1 9 1" stroke-width="0.03" x1="10" x2="10" y1="131" y2="134" /><line stroke="rgb(0%,100%,0%)" stroke-dasharray="1 1 9 1" stroke-width="0.03" x1="82" x2="82" y1="131" y2="134" /><line stroke="rgb(0%,100%,0%)" stroke-dasharray="1 1 9 1" stroke-width="0.03" x1="85" x2="85" y1="131" y2="134" /><line stroke="rgb(0%,100%,0%)" stroke-dasharray="1 1 9 1" stroke-width="0.03" x1="152" x2="152" y1="131" y2="134" /><line stroke="rgb(0%,100%,0%)" stroke-dasharray="1 1 9 1" stroke-width="0.03" x1="219" x2="219" y1="131" y2="134" /><line stroke="rgb(0%,100%,0%)" stroke-dasharray="1 1 9 1" stroke-width="0.03" x1="222" x2="222" y1="131" y2="134" /><line stroke="rgb(0%,100%,0%)" stroke-dasharray="1 1 9 1" stroke-width="0.03" x1="297" x2="297" y1="131" y2="134" /><line stroke="rgb(0%,100%,0%)" stroke-dasharray="1 1 9 1" stroke-width="0.03" x1="300" x2="300" y1="131" y2="134" /><line stroke="rgb(0%,100%,0%)" stroke-dasharray="1 1 9 1" stroke-width="0.03" x1="367" x2="367" y1="131" y2="134" /><line stroke="rgb(0%,100%,0%)" stroke-dasharray="1 1 9 1" stroke-width="0.03" x1="434" x2="434" y1="131" y2="134" /><line stroke="rgb(0%,100%,0%)" stroke-dasharray="1 1 9 1" stroke-width="0.03" x1="437" x2="437" y1="131" y2="134" /><line stroke="rgb(0%,100%,0%)" stroke-dasharray="1 1 9 1" stroke-width="0.03" x1="512" x2="512" y1="131" y2="134" /><line stroke="rgb(0%,100%,0%)" stroke-dasharray="1 1 9 1" stroke-width="0.03" x1="10" x2="10" y1="134" y2="141" /><line stroke="rgb(0%,100%,0%)" stroke-dasharray="1 1 9 1" stroke-width="0.03" x1="82" x2="82" y1="134" y2="141" /><line stroke="rgb(0%,100%,0%)" stroke-dasharray="1 1 9 1" stroke-width="0.03" x1="85" x2="85" y1="134" y2="141" /><line stroke="rgb(0%,100%,0%)" stroke-dasharray="1 1 9 1" stroke-width="0.03" x1="152" x2="152" y1="134" y2="141" /><line stroke="rgb(0%,100%,0%)" stroke-dasharray="1 1 9 1" stroke-width="0.03" x1="219" x2="219" y1="134" y2="141" /><line stroke="rgb(0%,100%,0%)" stroke-dasharray="1 1 9 1" stroke-width="0.03" x1="222" x2="222" y1="134" y2="141" /><line stroke="rgb(0%,100%,0%)" stroke-dasharray="1 1 9 1" stroke-width="0.03" x1="297" x2="297" y1="134" y2="141" /><line stroke="rgb(0%,100%,0%)" stroke-dasharray="1 1 9 1" stroke-width="0.03" x1="300" x2="300" y1="134" y2="141" /><line stroke="rgb(0%,100%,0%)" stroke-dasharray="1 1 9 1" stroke-width="0.03" x1="367" x2="367" y1="134" y2="141" /><line stroke="rgb(0%,100%,0%)" stroke-dasharray="1 1 9 1" stroke-width="0.03" x1="434" x2="434" y1="134" y2="141" /><line stroke="rgb(0%,100%,0%)" stroke-dasharray="1 1 9 1" stroke-width="0.03" x1="437" x2="437" y1="134" y2="141" /><line stroke="rgb(0%,100%,0%)" stroke-dasharray="1 1 9 1" stroke-width="0.03" x1="512" x2="512" y1="134" y2="141" /><line stroke="rgb(0%,100%,0%)" stroke-dasharray="1 1 9 1" stroke-width="0.03" x1="10" x2="10" y1="141" y2="161" /><line stroke="rgb(0%,100%,0%)" stroke-dasharray="1 1 9 1" stroke-width="0.03" x1="82" x2="82" y1="141" y2="161" /><line stroke="rgb(0%,100%,0%)" stroke-dasharray="1 1 9 1" stroke-width="0.03" x1="85" x2="85" y1="141" y2="161" /><line stroke="rgb(0%,100%,0%)" stroke-dasharray="1 1 9 1" stroke-width="0.03" x1="152" x2="152" y1="141" y2="161" /><line stroke="rgb(0%,100%,0%)" stroke-dasharray="1 1 9 1" stroke-width="0.03" x1="219" x2="219" y1="141" y2="161" /><line stroke="rgb(0%,100%,0%)" stroke-dasharray="1 1 9 1" stroke-width="0.03" x1="222" x2="222" y1="141" y2="161" /><line stroke="rgb(0%,100%,0%)" stroke-dasharray="1 1 9 1" stroke-width="0.03" x1="297" x2="297" y1="141" y2="161" /><line stroke="rgb(0%,100%,0%)" stroke-dasharray="1 1 9 1" stroke-width="0.03" x1="300" x2="300" y1="141" y2="161" /><line stroke="rgb(0%,100%,0%)" stroke-dasharray="1 1 9 1" stroke-width="0.03" x1="367" x2="367" y1="141" y2="161" /><line stroke="rgb(0%,100%,0%)" stroke-dasharray="1 1 9 1" stroke-width="0.03" x1="434" x2="434" y1="141" y2="161" /><line stroke="rgb(0%,100%,0%)" stroke-dasharray="1 1 9 1" stroke-width="0.03" x1="437" x2="437" y1="141" y2="161" /><line stroke="rgb(0%,100%,0%)" stroke-dasharray="1 1 9 1" stroke-width="0.03" x1="512" x2="512" y1="141" y2="161" /><line stroke="rgb(0%,100%,0%)" stroke-dasharray="1 1 9 1" stroke-width="0.03" x1="10" x2="10" y1="161" y2="181" /><line stroke="rgb(0%,100%,0%)" stroke-dasharray="1 1 9 1" stroke-width="0.03" x1="82" x2="82" y1="161" y2="181" /><line stroke="rgb(0%,100%,0%)" stroke-dasharray="1 1 9 1" stroke-width="0.03" x1="85" x2="85" y1="161" y2="181" /><line stroke="rgb(0%,100%,0%)" stroke-dasharray="1 1 9 1" stroke-width="0.03" x1="152" x2="152" y1="161" y2="181" /><line stroke="rgb(0%,100%,0%)" stroke-dasharray="1 1 9 1" stroke-width="0.03" x1="219" x2="219" y1="161" y2="181" /><line stroke="rgb(0%,100%,0%)" stroke-dasharray="1 1 9 1" stroke-width="0.03" x1="222" x2="222" y1="161" y2="181" /><line stroke="rgb(0%,100%,0%)" stroke-dasharray="1 1 9 1" stroke-width="0.03" x1="297" x2="297" y1="161" y2="181" /><line stroke="rgb(0%,100%,0%)" stroke-dasharray="1 1 9 1" stroke-width="0.03" x1="300" x2="300" y1="161" y2="181" /><line stroke="rgb(0%,100%,0%)" stroke-dasharray="1 1 9 1" stroke-width="0.03" x1="367" x2="367" y1="161" y2="181" /><line stroke="rgb(0%,100%,0%)" stroke-dasharray="1 1 9 1" stroke-width="0.03" x1="434" x2="434" y1="161" y2="181" /><line stroke="rgb(0%,100%,0%)" stroke-dasharray="1 1 9 1" stroke-width="0.03" x1="437" x2="437" y1="161" y2="181" /><line stroke="rgb(0%,100%,0%)" stroke-dasharray="1 1 9 1" stroke-width="0.03" x1="512" x2="512" y1="161" y2="181" /><line stroke="rgb(0%,100%,0%)" stroke-dasharray="1 1 9 1" stroke-width="0.03" x1="10" x2="10" y1="181" y2="221" /><line stroke="rgb(0%,100%,0%)" stroke-dasharray="1 1 9 1" stroke-width="0.03" x1="82" x2="82" y1="181" y2="221" /><line stroke="rgb(0%,100%,0%)" stroke-dasharray="1 1 9 1" stroke-width="0.03" x1="85" x2="85" y1="181" y2="221" /><line stroke="rgb(0%,100%,0%)" stroke-dasharray="1 1 9 1" stroke-width="0.03" x1="152" x2="152" y1="181" y2="221" /><line stroke="rgb(0%,100%,0%)" stroke-dasharray="1 1 9 1" stroke-width="0.03" x1="219" x2="219" y1="181" y2="221" /><line stroke="rgb(0%,100%,0%)" stroke-dasharray="1 1 9 1" stroke-width="0.03" x1="222" x2="222" y1="181" y2="221" /><line stroke="rgb(0%,100%,0%)" stroke-dasharray="1 1 9 1" stroke-width="0.03" x1="297" x2="297" y1="181" y2="221" /><line stroke="rgb(0%,100%,0%)" stroke-dasharray="1 1 9 1" stroke-width="0.03" x1="300" x2="300" y1="181" y2="221" /><line stroke="rgb(0%,100%,0%)" stroke-dasharray="1 1 9 1" stroke-width="0.03" x1="367" x2="367" y1="181" y2="221" /><line stroke="rgb(0%,100%,0%)" stroke-dasharray="1 1 9 1" stroke-width="0.03" x1="434" x2="434" y1="181" y2="221" /><line stroke="rgb(0%,100%,0%)" stroke-dasharray="1 1 9 1" stroke-width="0.03" x1="437" x2="437" y1="181" y2="221" /><line stroke="rgb(0%,100%,0%)" stroke-dasharray="1 1 9 1" stroke-width="0.03" x1="512" x2="512" y1="181" y2="221" /><line stroke="rgb(0%,0%,0%)" stroke-width="0.05" x1="10" x2="10" y1="141" y2="221" /><line stroke="rgb(0%,0%,0%)" stroke-width="0.05" x1="85" x2="85" y1="141" y2="10" /><line stroke="rgb(0%,0%,0%)" stroke-width="0.05" x1="219" x2="219" y1="141" y2="10" /><line stroke="rgb(0%,0%,0%)" stroke-width="0.05" x1="512" x2="512" y1="141" y2="221" /><line stroke="rgb(0%,0%,0%)" stroke-width="0.05" x1="10" x2="85" y1="141" y2="141" /><line stroke="rgb(0%,0%,0%)" stroke-width="0.05" x1="85" x2="219" y1="10" y2="10" /><line stroke="rgb(0%,0%,0%)" stroke-width="0.05" x1="219" x2="512" y1="141" y2="141" /><line stroke="rgb(0%,0%,0%)" stroke-width="0.05" x1="10" x2="85" y1="221" y2="221" /><line stroke="rgb(0%,0%,0%)" stroke-width="0.05" x1="85" x2="219" y1="221" y2="221" /><line stroke="rgb(0%,0%,0%)" stroke-width="0.05" x1="219" x2="300" y1="221" y2="221" /><line stroke="rgb(0%,0%,0%)" stroke-width="0.05" x1="300" x2="437" y1="221" y2="221" /><line stroke="rgb(0%,0%,0%)" stroke-width="0.05" x1="437" x2="512" y1="221" y2="221" /><rect fill="white" height="3" stroke="rgb(0%,0%,0%)" stroke-width="0.05" width="20" x="30" y="161" /></svg>