<?xml version="1.0" encoding="utf-8" ?>
<svg baseProfile="full" height="300mm" version="1.1" viewBox="0 0 600 300" width="600mm" xmlns="http://www.w3.org/2000/svg" xmlns:ev="http://www.w3.org/2001/xml-events" xmlns:xlink="http://www.w3.org/1999/xlink"><defs /><line stroke="rgb(0%,100%,0%)" stroke-dasharray="1 1 9 1" stroke-width="0.03" x1="0" x2="10" y1="10" y2="10" /><line stroke="rgb(0%,100%,0%)" stroke-dasharray="1 1 9 1" stroke-width="0.03" x1="0" x2="10" y1="50" y2="50" /><line stroke="rgb(0%,100%,0%)" stroke-dasharray="1 1 9 1" stroke-width="0.03" x1="0" x2="10" y1="51.5" y2="51.5" /><line stroke="rgb(0%,100%,0%)" stroke-dasharray="1 1 9 1" stroke-width="0.03" x1="0" x2="10" y1="53.0" y2="53.0" /><line stroke="rgb(0%,100%,0%)" stroke-dasharray="1 1 9 1" stroke-width="0.03" x1="0" x2="10" y1="131.0" y2="131.0" /><line stroke="rgb(0%,100%,0%)" stroke-dasharray="1 1 9 1" stroke-width="0.03" x1="0" x2="10" y1="132.5" y2="132.5" /><line stroke="rgb(0%,100%,0%)" stroke-dasharray="1 1 9 1" stroke-width="0.03" x1="0" x2="10" y1="134.0" y2="134.0" /><line stroke="rgb(0%,100%,0%)" stroke-dasharray="1 1 9 1" stroke-width="0.03" x1="0" x2="10" y1="141.0" y2="141.0" /><line stroke="rgb(0%,100%,0%)" stroke-dasharray="1 1 9 1" stroke-width="0.03" x1="0" x2="10" y1="161.0" y2="161.0" /><line stroke="rgb(0%,100%,0%)" stroke-dasharray="1 1 9 1" stroke-width="0.03" x1="0" x2="10" y1="181.0" y2="181.0" /><line stroke="rgb(0%,100%,0%)" stroke-dasharray="1 1 9 1" stroke-width="0.03" x1="0" x2="10" y1="221.0" y2="221.0" /><line stroke="rgb(0%,100%,0%)" stroke-dasharray="1 1 9 1" stroke-width="0.03" x1="10" x2="82" y1="10" y2="10" /><line stroke="rgb(0%,100%,0%)" stroke-dasharray="1 1 9 1" stroke-width="0.03" x1="10" x2="82" y1="50" y2="50" /><line stroke="rgb(0%,100%,0%)" stroke-dasharray="1 1 9 1" stroke-width="0.03" x1="10" x2="82" y1="51.5" y2="51.5" /><line stroke="rgb(0%,100%,0%)" stroke-dasharray="1 1 9 1" stroke-width="0.03" x1="10" x2="82" y1="53.0" y2="53.0" /><line stroke="rgb(0%,100%,0%)" stroke-dasharray="1 1 9 1" stroke-width="0.03" x1="10" x2="82" y1="131.0" y2="131.0" /><line stroke="rgb(0%,100%,0%)" stroke-dasharray="1 1 9 1" stroke-width="0.03" x1="10" x2="82" y1="132.5" y2="132.5" /><line stroke="rgb(0%,100%,0%)" stroke-dasharray="1 1 9 1" stroke-width="0.03" x1="10" x2="82" y1="134.0" y2="134.0" /><line stroke="rgb(0%,100%,0%)" stroke-dasharray="1 1 9 1" stroke-width="0.03" x1="10" x2="82" y1="141.0" y2="141.0" /><line stroke="rgb(0%,100%,0%)" stroke-dasharray="1 1 9 1" stroke-width="0.03" x1="10" x2="82" y1="161.0" y2="161.0" /><line stroke="rgb(0%,100%,0%)" stroke-dasharray="1 1 9 1" stroke-width="0.03" x1="10" x2="82" y1="181.0" y2="181.0" /><line stroke="rgb(0%,100%,0%)" stroke-dasharray="1 1 9 1" stroke-width="0.03" x1="10" x2="82" y1="221.0" y2="221.0" /><line stroke="rgb(0%,100%,0%)" stroke-dasharray="1 1 9 1" stroke-width="0.03" x1="82" x2="83.5" y1="10" y2="10" /><line stroke="rgb(0%,100%,0%)" stroke-dasharray="1 1 9 1" stroke-width="0.03" x1="82" x2="83.5" y1="50" y2="50" /><line stroke="rgb(0%,100%,0%)" stroke-dasharray="1 1 9 1" stroke-width="0.03" x1="82" x2="83.5" y1="51.5" y2="51.5" /><line stroke="rgb(0%,100%,0%)" stroke-dasharray="1 1 9 1" stroke-width="0.03" x1="82" x2="83.5" y1="53.0" y2="53.0" /><line stroke="rgb(0%,100%,0%)" stroke-dasharray="1 1 9 1" stroke-width="0.03" x1="82" x2="83.5" y1="131.0" y2="131.0" /><line stroke="rgb(0%,100%,0%)" stroke-dasharray="1 1 9 1" stroke-width="0.03" x1="82" x2="83.5" y1="132.5" y2="132.5" /><line stroke="rgb(0%,100%,0%)" stroke-dasharray="1 1 9 1" stroke-width="0.03" x1="82" x2="83.5" y1="134.0" y2="134.0" /><line stroke="rgb(0%,100%,0%)" stroke-dasharray="1 1 9 1" stroke-width="0.03" x1="82" x2="83.5" y1="141.0" y2="141.0" /><line stroke="rgb(0%,100%,0%)" stroke-dasharray="1 1 9 1" stroke-width="0.03" x1="82" x2="83.5" y1="161.0" y2="161.0" /><line stroke="rgb(0%,100%,0%)" stroke-dasharray="1 1 9 1" stroke-width="0.03" x1="82" x2="83.5" y1="181.0" y2="181.0" /><line stroke="rgb(0%,100%,0%)" stroke-dasharray="1 1 9 1" stroke-width="0.03" x1="82" x2="83.5" y1="221.0" y2="221.0" /><line stroke="rgb(0%,100%,0%)" stroke-dasharray="1 1 9 1" stroke-width="0.03" x1="83.5" x2="85.0" y1="10" y2="10" /><line stroke="rgb(0%,100%,0%)" stroke-dasharray="1 1 9 1" stroke-width="0.03" x1="83.5" x2="85.0" y1="50" y2="50" /><line stroke="rgb(0%,100%,0%)" stroke-dasharray="1 1 9 1" stroke-width="0.03" x1="83.5" x2="85.0" y1="51.5" y2="51.5" /><line stroke="rgb(0%,100%,0%)" stroke-dasharray="1 1 9 1" stroke-width="0.03" x1="83.5" x2="85.0" y1="53.0" y2="53.0" /><line stroke="rgb(0%,100%,0%)" stroke-dasharray="1 1 9 1" stroke-width="0.03" x1="83.5" x2="85.0" y1="131.0" y2="131.0" /><line stroke="rgb(0%,100%,0%)" stroke-dasharray="1 1 9 1" stroke-width="0.03" x1="83.5" x2="85.0" y1="132.5" y2="132.5" /><line stroke="rgb(0%,100%,0%)" stroke-dasharray="1 1 9 1" stroke-width="0.03" x1="83.5" x2="85.0" y1="134.0" y2="134.0" /><line stroke="rgb(0%,100%,0%)" stroke-dasharray="1 1 9 1" stroke-width="0.03" x1="83.5" x2="85.0" y1="141.0" y2="141.0" /><line stroke="rgb(0%,100%,0%)" stroke-dasharray="1 1 9 1" stroke-width="0.03" x1="83.5" x2="85.0" y1="161.0" y2="161.0" /><line stroke="rgb(0%,100%,0%)" stroke-dasharray="1 1 9 1" stroke-width="0.03" x1="83.5" x2="85.0" y1="181.0" y2="181.0" /><line stroke="rgb(0%,100%,0%)" stroke-dasharray="1 1 9 1" stroke-width="0.03" x1="83.5" x2="85.0" y1="221.0" y2="221.0" /><line stroke="rgb(0%,100%,0%)" stroke-dasharray="1 1 9 1" stroke-width="0.03" x1="85.0" x2="150.0" y1="10" y2="10" /><line stroke="rgb(0%,100%,0%)" stroke-dasharray="1 1 9 1" stroke-width="0.03" x1="85.0" x2="150.0" y1="50" y2="50" /><line stroke="rgb(0%,100%,0%)" stroke-dasharray="1 1 9 1" stroke-width="0.03" x1="85.0" x2="150.0" y1="51.5" y2="51.5" /><line stroke="rgb(0%,100%,0%)" stroke-dasharray="1 1 9 1" stroke-width="0.03" x1="85.0" x2="150.0" y1="53.0" y2="53.0" /><line stroke="rgb(0%,100%,0%)" stroke-dasharray="1 1 9 1" stroke-width="0.03" x1="85.0" x2="150.0" y1="131.0" y2="131.0" /><line stroke="rgb(0%,100%,0%)" stroke-dasharray="1 1 9 1" stroke-width="0.03" x1="85.0" x2="150.0" y1="132.5" y2="132.5" /><line stroke="rgb(0%,100%,0%)" stroke-dasharray="1 1 9 1" stroke-width="0.03" x1="85.0" x2="150.0" y1="134.0" y2="134.0" /><line stroke="rgb(0%,100%,0%)" stroke-dasharray="1 1 9 1" stroke-width="0.03" x1="85.0" x2="150.0" y1="141.0" y2="141.0" /><line stroke="rgb(0%,100%,0%)" stroke-dasharray="1 1 9 1" stroke-width="0.03" x1="85.0" x2="150.0" y1="161.0" y2="161.0" /><line stroke="rgb(0%,100%,0%)" stroke-dasharray="1 1 9 1" stroke-width="0.03" x1="85.0" x2="150.0" y1="181.0" y2="181.0" /><line stroke="rgb(0%,100%,0%)" stroke-dasharray="1 1 9 1" stroke-width="0.03" x1="85.0" x2="150.0" y1="221.0" y2="221.0" /><line stroke="rgb(0%,100%,0%)" stroke-dasharray="1 1 9 1" stroke-width="0.03" x1="150.0" x2="215.0" y1="10" y2="10" /><line stroke="rgb(0%,100%,0%)" stroke-dasharray="1 1 9 1" stroke-width="0.03" x1="150.0" x2="215.0" y1="50" y2="50" /><line stroke="rgb(0%,100%,0%)" stroke-dasharray="1 1 9 1" stroke-width="0.03" x1="150.0" x2="215.0" y1="51.5" y2="51.5" /><line stroke="rgb(0%,100%,0%)" stroke-dasharray="1 1 9 1" stroke-width="0.03" x1="150.0" x2="215.0" y1="53.0" y2="53.0" /><line stroke="rgb(0%,100%,0%)" stroke-dasharray="1 1 9 1" stroke-width="0.03" x1="150.0" x2="215.0" y1="131.0" y2="131.0" /><line stroke="rgb(0%,100%,0%)" stroke-dasharray="1 1 9 1" stroke-width="0.03" x1="150.0" x2="215.0" y1="132.5" y2="132.5" /><line stroke="rgb(0%,100%,0%)" stroke-dasharray="1 1 9 1" stroke-width="0.03" x1="150.0" x2="215.0" y1="134.0" y2="134.0" /><line stroke="rgb(0%,100%,0%)" stroke-dasharray="1 1 9 1" stroke-width="0.03" x1="150.0" x2="215.0" y1="141.0" y2="141.0" /><line stroke="rgb(0%,100%,0%)" stroke-dasharray="1 1 9 1" stroke-width="0.03" x1="150.0" x2="215.0" y1="161.0" y2="161.0" /><line stroke="rgb(0%,100%,0%)" stroke-dasharray="1 1 9 1" stroke-width="0.03" x1="150.0" x2="215.0" y1="181.0" y2="181.0" /><line stroke="rgb(0%,100%,0%)" stroke-dasharray="1 1 9 1" stroke-width="0.03" x1="150.0" x2="215.0" y1="221.0" y2="221.0" /><line stroke="rgb(0%,100%,0%)" stroke-dasharray="1 1 9 1" stroke-width="0.03" x1="215.0" x2="216.5" y1="10" y2="10" /><line stroke="rgb(0%,100%,0%)" stroke-dasharray="1 1 9 1" stroke-width="0.03" x1="215.0" x2="216.5" y1="50" y2="50" /><line stroke="rgb(0%,100%,0%)" stroke-dasharray="1 1 9 1" stroke-width="0.03" x1="215.0" x2="216.5" y1="51.5" y2="51.5" /><line stroke="rgb(0%,100%,0%)" stroke-dasharray="1 1 9 1" stroke-width="0.03" x1="215.0" x2="216.5" y1="53.0" y2="53.0" /><line stroke="rgb(0%,100%,0%)" stroke-dasharray="1 1 9 1" stroke-width="0.03" x1="215.0" x2="216.5" y1="131.0" y2="131.0" /><line stroke="rgb(0%,100%,0%)" stroke-dasharray="1 1 9 1" stroke-width="0.03" x1="215.0" x2="216.5" y1="132.5" y2="132.5" /><line stroke="rgb(0%,100%,0%)" stroke-dasharray="1 1 9 1" stroke-width="0.03" x1="215.0" x2="216.5" y1="134.0" y2="134.0" /><line stroke="rgb(0%,100%,0%)" stroke-dasharray="1 1 9 1" stroke-width="0.03" x1="215.0" x2="216.5" y1="141.0" y2="141.0" /><line stroke="rgb(0%,100%,0%)" stroke-dasharray="1 1 9 1" stroke-width="0.03" x1="215.0" x2="216.5" y1="161.0" y2="161.0" /><line stroke="rgb(0%,100%,0%)" stroke-dasharray="1 1 9 1" stroke-width="0.03" x1="215.0" x2="216.5" y1="181.0" y2="181.0" /><line stroke="rgb(0%,100%,0%)" stroke-dasharray="1 1 9 1" stroke-width="0.03" x1="215.0" x2="216.5" y1="221.0" y2="221.0" /><line stroke="rgb(0%,100%,0%)" stroke-dasharray="1 1 9 1" stroke-width="0.03" x1="216.5" x2="218.0" y1="10" y2="10" /><line stroke="rgb(0%,100%,0%)" stroke-dasharray="1 1 9 1" stroke-width="0.03" x1="216.5" x2="218.0" y1="50" y2="50" /><line stroke="rgb(0%,100%,0%)" stroke-dasharray="1 1 9 1" stroke-width="0.03" x1="216.5" x2="218.0" y1="51.5" y2="51.5" /><line stroke="rgb(0%,100%,0%)" stroke-dasharray="1 1 9 1" stroke-width="0.03" x1="216.5" x2="218.0" y1="53.0" y2="53.0" /><line stroke="rgb(0%,100%,0%)" stroke-dasharray="1 1 9 1" stroke-width="0.03" x1="216.5" x2="218.0" y1="131.0" y2="131.0" /><line stroke="rgb(0%,100%,0%)" stroke-dasharray="1 1 9 1" stroke-width="0.03" x1="216.5" x2="218.0" y1="132.5" y2="132.5" /><line stroke="rgb(0%,100%,0%)" stroke-dasharray="1 1 9 1" stroke-width="0.03" x1="216.5" x2="218.0" y1="134.0" y2="134.0" /><line stroke="rgb(0%,100%,0%)" stroke-dasharray="1 1 9 1" stroke-width="0.03" x1="216.5" x2="218.0" y1="141.0" y2="141.0" /><line stroke="rgb(0%,100%,0%)" stroke-dasharray="1 1 9 1" stroke-width="0.03" x1="216.5" x2="218.0" y1="161.0" y2="161.0" /><line stroke="rgb(0%,100%,0%)" stroke-dasharray="1 1 9 1" stroke-width="0.03" x1="216.5" x2="218.0" y1="181.0" y2="181.0" /><line stroke="rgb(0%,100%,0%)" stroke-dasharray="1 1 9 1" stroke-width="0.03" x1="216.5" x2="218.0" y1="221.0" y2="221.0" /><line stroke="rgb(0%,100%,0%)" stroke-dasharray="1 1 9 1" stroke-width="0.03" x1="218.0" x2="293.0" y1="10" y2="10" /><line stroke="rgb(0%,100%,0%)" stroke-dasharray="1 1 9 1" stroke-width="0.03" x1="218.0" x2="293.0" y1="50" y2="50" /><line stroke="rgb(0%,100%,0%)" stroke-dasharray="1 1 9 1" stroke-width="0.03" x1="218.0" x2="293.0" y1="51.5" y2="51.5" /><line stroke="rgb(0%,100%,0%)" stroke-dasharray="1 1 9 1" stroke-width="0.03" x1="218.0" x2="293.0" y1="53.0" y2="53.0" /><line stroke="rgb(0%,100%,0%)" stroke-dasharray="1 1 9 1" stroke-width="0.03" x1="218.0" x2="293.0" y1="131.0" y2="131.0" /><line stroke="rgb(0%,100%,0%)" stroke-dasharray="1 1 9 1" stroke-width="0.03" x1="218.0" x2="293.0" y1="132.5" y2="132.5" /><line stroke="rgb(0%,100%,0%)" stroke-dasharray="1 1 9 1" stroke-width="0.03" x1="218.0" x2="293.0" y1="134.0" y2="134.0" /><line stroke="rgb(0%,100%,0%)" stroke-dasharray="1 1 9 1" stroke-width="0.03" x1="218.0" x2="293.0" y1="141.0" y2="141.0" /><line stroke="rgb(0%,100%,0%)" stroke-dasharray="1 1 9 1" stroke-width="0.03" x1="218.0" x2="293.0" y1="161.0" y2="161.0" /><line stroke="rgb(0%,100%,0%)" stroke-dasharray="1 1 9 1" stroke-width="0.03" x1="218.0" x2="293.0" y1="181.0" y2="181.0" /><line stroke="rgb(0%,100%,0%)" stroke-dasharray="1 1 9 1" stroke-width="0.03" x1="218.0" x2="293.0" y1="221.0" y2="221.0" /><line stroke="rgb(0%,100%,0%)" stroke-dasharray="1 1 9 1" stroke-width="0.03" x1="293.0" x2="294.5" y1="10" y2="10" /><line stroke="rgb(0%,100%,0%)" stroke-dasharray="1 1 9 1" stroke-width="0.03" x1="293.0" x2="294.5" y1="50" y2="50" /><line stroke="rgb(0%,100%,0%)" stroke-dasharray="1 1 9 1" stroke-width="0.03" x1="293.0" x2="294.5" y1="51.5" y2="51.5" /><line stroke="rgb(0%,100%,0%)" stroke-dasharray="1 1 9 1" stroke-width="0.03" x1="293.0" x2="294.5" y1="53.0" y2="53.0" /><line stroke="rgb(0%,100%,0%)" stroke-dasharray="1 1 9 1" stroke-width="0.03" x1="293.0" x2="294.5" y1="131.0" y2="131.0" /><line stroke="rgb(0%,100%,0%)" stroke-dasharray="1 1 9 1" stroke-width="0.03" x1="293.0" x2="294.5" y1="132.5" y2="132.5" /><line stroke="rgb(0%,100%,0%)" stroke-dasharray="1 1 9 1" stroke-width="0.03" x1="293.0" x2="294.5" y1="134.0" y2="134.0" /><line stroke="rgb(0%,100%,0%)" stroke-dasharray="1 1 9 1" stroke-width="0.03" x1="293.0" x2="294.5" y1="141.0" y2="141.0" /><line stroke="rgb(0%,100%,0%)" stroke-dasharray="1 1 9 1" stroke-width="0.03" x1="293.0" x2="294.5" y1="161.0" y2="161.0" /><line stroke="rgb(0%,100%,0%)" stroke-dasharray="1 1 9 1" stroke-width="0.03" x1="293.0" x2="294.5" y1="181.0" y2="181.0" /><line stroke="rgb(0%,100%,0%)" stroke-dasharray="1 1 9 1" stroke-width="0.03" x1="293.0" x2="294.5" y1="221.0" y2="221.0" /><line stroke="rgb(0%,100%,0%)" stroke-dasharray="1 1 9 1" stroke-width="0.03" x1="294.5" x2="296.0" y1="10" y2="10" /><line stroke="rgb(0%,100%,0%)" stroke-dasharray="1 1 9 1" stroke-width="0.03" x1="294.5" x2="296.0" y1="50" y2="50" /><line stroke="rgb(0%,100%,0%)" stroke-dasharray="1 1 9 1" stroke-width="0.03" x1="294.5" x2="296.0" y1="51.5" y2="51.5" /><line stroke="rgb(0%,100%,0%)" stroke-dasharray="1 1 9 1" stroke-width="0.03" x1="294.5" x2="296.0" y1="53.0" y2="53.0" /><line stroke="rgb(0%,100%,0%)" stroke-dasharray="1 1 9 1" stroke-width="0.03" x1="294.5" x2="296.0" y1="131.0" y2="131.0" /><line stroke="rgb(0%,100%,0%)" stroke-dasharray="1 1 9 1" stroke-width="0.03" x1="294.5" x2="296.0" y1="132.5" y2="132.5" /><line stroke="rgb(0%,100%,0%)" stroke-dasharray="1 1 9 1" stroke-width="0.03" x1="294.5" x2="296.0" y1="134.0" y2="134.0" /><line stroke="rgb(0%,100%,0%)" stroke-dasharray="1 1 9 1" stroke-width="0.03" x1="294.5" x2="296.0" y1="141.0" y2="141.0" /><line stroke="rgb(0%,100%,0%)" stroke-dasharray="1 1 9 1" stroke-width="0.03" x1="294.5" x2="296.0" y1="161.0" y2="161.0" /><line stroke="rgb(0%,100%,0%)" stroke-dasharray="1 1 9 1" stroke-width="0.03" x1="294.5" x2="296.0" y1="181.0" y2="181.0" /><line stroke="rgb(0%,100%,0%)" stroke-dasharray="1 1 9 1" stroke-width="0.03" x1="294.5" x2="296.0" y1="221.0" y2="221.0" /><line stroke="rgb(0%,100%,0%)" stroke-dasharray="1 1 9 1" stroke-width="0.03" x1="296.0" x2="361.0" y1="10" y2="10" /><line stroke="rgb(0%,100%,0%)" stroke-dasharray="1 1 9 1" stroke-width="0.03" x1="296.0" x2="361.0" y1="50" y2="50" /><line stroke="rgb(0%,100%,0%)" stroke-dasharray="1 1 9 1" stroke-width="0.03" x1="296.0" x2="361.0" y1="51.5" y2="51.5" /><line stroke="rgb(0%,100%,0%)" stroke-dasharray="1 1 9 1" stroke-width="0.03" x1="296.0" x2="361.0" y1="53.0" y2="53.0" /><line stroke="rgb(0%,100%,0%)" stroke-dasharray="1 1 9 1" stroke-width="0.03" x1="296.0" x2="361.0" y1="131.0" y2="131.0" /><line stroke="rgb(0%,100%,0%)" stroke-dasharray="1 1 9 1" stroke-width="0.03" x1="296.0" x2="361.0" y1="132.5" y2="132.5" /><line stroke="rgb(0%,100%,0%)" stroke-dasharray="1 1 9 1" stroke-width="0.03" x1="296.0" x2="361.0" y1="134.0" y2="134.0" /><line stroke="rgb(0%,100%,0%)" stroke-dasharray="1 1 9 1" stroke-width="0.03" x1="296.0" x2="361.0" y1="141.0" y2="141.0" /><line stroke="rgb(0%,100%,0%)" stroke-dasharray="1 1 9 1" stroke-width="0.03" x1="296.0" x2="361.0" y1="161.0" y2="161.0" /><line stroke="rgb(0%,100%,0%)" stroke-dasharray="1 1 9 1" stroke-width="0.03" x1="296.0" x2="361.0" y1="181.0" y2="181.0" /><line stroke="rgb(0%,100%,0%)" stroke-dasharray="1 1 9 1" stroke-width="0.03" x1="296.0" x2="361.0" y1="221.0" y2="221.0" /><line stroke="rgb(0%,100%,0%)" stroke-dasharray="1 1 9 1" stroke-width="0.03" x1="361.0" x2="426.0" y1="10" y2="10" /><line stroke="rgb(0%,100%,0%)" stroke-dasharray="1 1 9 1" stroke-width="0.03" x1="361.0" x2="426.0" y1="50" y2="50" /><line stroke="rgb(0%,100%,0%)" stroke-dasharray="1 1 9 1" stroke-width="0.03" x1="361.0" x2="426.0" y1="51.5" y2="51.5" /><line stroke="rgb(0%,100%,0%)" stroke-dasharray="1 1 9 1" stroke-width="0.03" x1="361.0" x2="426.0" y1="53.0" y2="53.0" /><line stroke="rgb(0%,100%,0%)" stroke-dasharray="1 1 9 1" stroke-width="0.03" x1="361.0" x2="426.0" y1="131.0" y2="131.0" /><line stroke="rgb(0%,100%,0%)" stroke-dasharray="1 1 9 1" stroke-width="0.03" x1="361.0" x2="426.0" y1="132.5" y2="132.5" /><line stroke="rgb(0%,100%,0%)" stroke-dasharray="1 1 9 1" stroke-width="0.03" x1="361.0" x2="426.0" y1="134.0" y2="134.0" /><line stroke="rgb(0%,100%,0%)" stroke-dasharray="1 1 9 1" stroke-width="0.03" x1="361.0" x2="426.0" y1="141.0" y2="141.0" /><line stroke="rgb(0%,100%,0%)" stroke-dasharray="1 1 9 1" stroke-width="0.03" x1="361.0" x2="426.0" y1="161.0" y2="161.0" /><line stroke="rgb(0%,100%,0%)" stroke-dasharray="1 1 9 1" stroke-width="0.03" x1="361.0" x2="426.0" y1="181.0" y2="181.0" /><line stroke="rgb(0%,100%,0%)" stroke-dasharray="1 1 9 1" stroke-width="0.03" x1="361.0" x2="426.0" y1="221.0" y2="221.0" /><line stroke="rgb(0%,100%,0%)" stroke-dasharray="1 1 9 1" stroke-width="0.03" x1="426.0" x2="427.5" y1="10" y2="10" /><line stroke="rgb(0%,100%,0%)" stroke-dasharray="1 1 9 1" stroke-width="0.03" x1="426.0" x2="427.5" y1="50" y2="50" /><line stroke="rgb(0%,100%,0%)" stroke-dasharray="1 1 9 1" stroke-width="0.03" x1="426.0" x2="427.5" y1="51.5" y2="51.5" /><line stroke="rgb(0%,100%,0%)" stroke-dasharray="1 1 9 1" stroke-width="0.03" x1="426.0" x2="427.5" y1="53.0" y2="53.0" /><line stroke="rgb(0%,100%,0%)" stroke-dasharray="1 1 9 1" stroke-width="0.03" x1="426.0" x2="427.5" y1="131.0" y2="131.0" /><line stroke="rgb(0%,100%,0%)" stroke-dasharray="1 1 9 1" stroke-width="0.03" x1="426.0" x2="427.5" y1="132.5" y2="132.5" /><line stroke="rgb(0%,100%,0%)" stroke-dasharray="1 1 9 1" stroke-width="0.03" x1="426.0" x2="427.5" y1="134.0" y2="134.0" /><line stroke="rgb(0%,100%,0%)" stroke-dasharray="1 1 9 1" stroke-width="0.03" x1="426.0" x2="427.5" y1="141.0" y2="141.0" /><line stroke="rgb(0%,100%,0%)" stroke-dasharray="1 1 9 1" stroke-width="0.03" x1="426.0" x2="427.5" y1="161.0" y2="161.0" /><line stroke="rgb(0%,100%,0%)" stroke-dasharray="1 1 9 1" stroke-width="0.03" x1="426.0" x2="427.5" y1="181.0" y2="181.0" /><line stroke="rgb(0%,100%,0%)" stroke-dasharray="1 1 9 1" stroke-width="0.03" x1="426.0" x2="427.5" y1="221.0" y2="221.0" /><line stroke="rgb(0%,100%,0%)" stroke-dasharray="1 1 9 1" stroke-width="0.03" x1="427.5" x2="429.0" y1="10" y2="10" /><line stroke="rgb(0%,100%,0%)" stroke-dasharray="1 1 9 1" stroke-width="0.03" x1="427.5" x2="429.0" y1="50" y2="50" /><line stroke="rgb(0%,100%,0%)" stroke-dasharray="1 1 9 1" stroke-width="0.03" x1="427.5" x2="429.0" y1="51.5" y2="51.5" /><line stroke="rgb(0%,100%,0%)" stroke-dasharray="1 1 9 1" stroke-width="0.03" x1="427.5" x2="429.0" y1="53.0" y2="53.0" /><line stroke="rgb(0%,100%,0%)" stroke-dasharray="1 1 9 1" stroke-width="0.03" x1="427.5" x2="429.0" y1="131.0" y2="131.0" /><line stroke="rgb(0%,100%,0%)" stroke-dasharray="1 1 9 1" stroke-width="0.03" x1="427.5" x2="429.0" y1="132.5" y2="132.5" /><line stroke="rgb(0%,100%,0%)" stroke-dasharray="1 1 9 1" stroke-width="0.03" x1="427.5" x2="429.0" y1="134.0" y2="134.0" /><line stroke="rgb(0%,100%,0%)" stroke-dasharray="1 1 9 1" stroke-width="0.03" x1="427.5" x2="429.0" y1="141.0" y2="141.0" /><line stroke="rgb(0%,100%,0%)" stroke-dasharray="1 1 9 1" stroke-width="0.03" x1="427.5" x2="429.0" y1="161.0" y2="161.0" /><line stroke="rgb(0%,100%,0%)" stroke-dasharray="1 1 9 1" stroke-width="0.03" x1="427.5" x2="429.0" y1="181.0" y2="181.0" /><line stroke="rgb(0%,100%,0%)" stroke-dasharray="1 1 9 1" stroke-width="0.03" x1="427.5" x2="429.0" y1="221.0" y2="221.0" /><line stroke="rgb(0%,100%,0%)" stroke-dasharray="1 1 9 1" stroke-width="0.03" x1="429.0" x2="504.0" y1="10" y2="10" /><line stroke="rgb(0%,100%,0%)" stroke-dasharray="1 1 9 1" stroke-width="0.03" x1="429.0" x2="504.0" y1="50" y2="50" /><line stroke="rgb(0%,100%,0%)" stroke-dasharray="1 1 9 1" stroke-width="0.03" x1="429.0" x2="504.0" y1="51.5" y2="51.5" /><line stroke="rgb(0%,100%,0%)" stroke-dasharray="1 1 9 1" stroke-width="0.03" x1="429.0" x2="504.0" y1="53.0" y2="53.0" /><line stroke="rgb(0%,100%,0%)" stroke-dasharray="1 1 9 1" stroke-width="0.03" x1="429.0" x2="504.0" y1="131.0" y2="131.0" /><line stroke="rgb(0%,100%,0%)" stroke-dasharray="1 1 9 1" stroke-width="0.03" x1="429.0" x2="504.0" y1="132.5" y2="132.5" /><line stroke="rgb(0%,100%,0%)" stroke-dasharray="1 1 9 1" stroke-width="0.03" x1="429.0" x2="504.0" y1="134.0" y2="134.0" /><line stroke="rgb(0%,100%,0%)" stroke-dasharray="1 1 9 1" stroke-width="0.03" x1="429.0" x2="504.0" y1="141.0" y2="141.0" /><line stroke="rgb(0%,100%,0%)" stroke-dasharray="1 1 9 1" stroke-width="0.03" x1="429.0" x2="504.0" y1="161.0" y2="161.0" /><line stroke="rgb(0%,100%,0%)" stroke-dasharray="1 1 9 1" stroke-width="0.03" x1="429.0" x2="504.0" y1="181.0" y2="181.0" /><line stroke="rgb(0%,100%,0%)" stroke-dasharray="1 1 9 1" stroke-width="0.03" x1="429.0" x2="504.0" y1="221.0" y2="221.0" /><line stroke="rgb(0%,100%,0%)" stroke-dasharray="1 1 9 1" stroke-width="0.03" x1="10" x2="10" y1="0" y2="10" /><line stroke="rgb(0%,100%,0%)" stroke-dasharray="1 1 9 1" stroke-width="0.03" x1="82" x2="82" y1="0" y2="10" /><line stroke="rgb(0%,100%,0%)" stroke-dasharray="1 1 9 1" stroke-width="0.03" x1="83.5" x2="83.5" y1="0" y2="10" /><line stroke="rgb(0%,100%,0%)" stroke-dasharray="1 1 9 1" stroke-width="0.03" x1="85.0" x2="85.0" y1="0" y2="10" /><line stroke="rgb(0%,100%,0%)" stroke-dasharray="1 1 9 1" stroke-width="0.03" x1="150.0" x2="150.0" y1="0" y2="10" /><line stroke="rgb(0%,100%,0%)" stroke-dasharray="1 1 9 1" stroke-width="0.03" x1="215.0" x2="215.0" y1="0" y2="10" /><line stroke="rgb(0%,100%,0%)" stroke-dasharray="1 1 9 1" stroke-width="0.03" x1="216.5" x2="216.5" y1="0" y2="10" /><line stroke="rgb(0%,100%,0%)" stroke-dasharray="1 1 9 1" stroke-width="0.03" x1="218.0" x2="218.0" y1="0" y2="10" /><line stroke="rgb(0%,100%,0%)" stroke-dasharray="1 1 9 1" stroke-width="0.03" x1="293.0" x2="293.0" y1="0" y2="10" /><line stroke="rgb(0%,100%,0%)" stroke-dasharray="1 1 9 1" stroke-width="0.03" x1="294.5" x2="294.5" y1="0" y2="10" /><line stroke="rgb(0%,100%,0%)" stroke-dasharray="1 1 9 1" stroke-width="0.03" x1="296.0" x2="296.0" y1="0" y2="10" /><line stroke="rgb(0%,100%,0%)" stroke-dasharray="1 1 9 1" stroke-width="0.03" x1="361.0" x2="361.0" y1="0" y2="10" /><line stroke="rgb(0%,100%,0%)" stroke-dasharray="1 1 9 1" stroke-width="0.03" x1="426.0" x2="426.0" y1="0" y2="10" /><line stroke="rgb(0%,100%,0%)" stroke-dasharray="1 1 9 1" stroke-width="0.03" x1="427.5" x2="427.5" y1="0" y2="10" /><line stroke="rgb(0%,100%,0%)" stroke-dasharray="1 1 9 1" stroke-width="0.03" x1="429.0" x2="429.0" y1="0" y2="10" /><line stroke="rgb(0%,100%,0%)" stroke-dasharray="1 1 9 1" stroke-width="0.03" x1="504.0" x2="504.0" y1="0" y2="10" /><line stroke="rgb(0%,100%,0%)" stroke-dasharray="1 1 9 1" stroke-width="0.03" x1="10" x2="10" y1="10" y2="50" /><line stroke="rgb(0%,100%,0%)" stroke-dasharray="1 1 9 1" stroke-width="0.03" x1="82" x2="82" y1="10" y2="50" /><line stroke="rgb(0%,100%,0%)" stroke-dasharray="1 1 9 1" stroke-width="0.03" x1="83.5" x2="83.5" y1="10" y2="50" /><line stroke="rgb(0%,100%,0%)" stroke-dasharray="1 1 9 1" stroke-width="0.03" x1="85.0" x2="85.0" y1="10" y2="50" /><line stroke="rgb(0%,100%,0%)" stroke-dasharray="1 1 9 1" stroke-width="0.03" x1="150.0" x2="150.0" y1="10" y2="50" /><line stroke="rgb(0%,100%,0%)" stroke-dasharray="1 1 9 1" stroke-width="0.03" x1="215.0" x2="215.0" y1="10" y2="50" /><line stroke="rgb(0%,100%,0%)" stroke-dasharray="1 1 9 1" stroke-width="0.03" x1="216.5" x2="216.5" y1="10" y2="50" /><line stroke="rgb(0%,100%,0%)" stroke-dasharray="1 1 9 1" stroke-width="0.03" x1="218.0" x2="218.0" y1="10" y2="50" /><line stroke="rgb(0%,100%,0%)" stroke-dasharray="1 1 9 1" stroke-width="0.03" x1="293.0" x2="293.0" y1="10" y2="50" /><line stroke="rgb(0%,100%,0%)" stroke-dasharray="1 1 9 1" stroke-width="0.03" x1="294.5" x2="294.5" y1="10" y2="50" /><line stroke="rgb(0%,100%,0%)" stroke-dasharray="1 1 9 1" stroke-width="0.03" x1="296.0" x2="296.0" y1="10" y2="50" /><line stroke="rgb(0%,100%,0%)" stroke-dasharray="1 1 9 1" stroke-width="0.03" x1="361.0" x2="361.0" y1="10" y2="50" /><line stroke="rgb(0%,100%,0%)" stroke-dasharray="1 1 9 1" stroke-width="0.03" x1="426.0" x2="426.0" y1="10" y2="50" /><line stroke="rgb(0%,100%,0%)" stroke-dasharray="1 1 9 1" stroke-width="0.03" x1="427.5" x2="427.5" y1="10" y2="50" /><line stroke="rgb(0%,100%,0%)" stroke-dasharray="1 1 9 1" stroke-width="0.03" x1="429.0" x2="429.0" y1="10" y2="50" /><line stroke="rgb(0%,100%,0%)" stroke-dasharray="1 1 9 1" stroke-width="0.03" x1="504.0" x2="504.0" y1="10" y2="50" /><line stroke="rgb(0%,100%,0%)" stroke-dasharray="1 1 9 1" stroke-width="0.03" x1="10" x2="10" y1="50" y2="51.5" /><line stroke="rgb(0%,100%,0%)" stroke-dasharray="1 1 9 1" stroke-width="0.03" x1="82" x2="82" y1="50" y2="51.5" /><line stroke="rgb(0%,100%,0%)" stroke-dasharray="1 1 9 1" stroke-width="0.03" x1="83.5" x2="83.5" y1="50" y2="51.5" /><line stroke="rgb(0%,100%,0%)" stroke-dasharray="1 1 9 1" stroke-width="0.03" x1="85.0" x2="85.0" y1="50" y2="51.5" /><line stroke="rgb(0%,100%,0%)" stroke-dasharray="1 1 9 1" stroke-width="0.03" x1="150.0" x2="150.0" y1="50" y2="51.5" /><line stroke="rgb(0%,100%,0%)" stroke-dasharray="1 1 9 1" stroke-width="0.03" x1="215.0" x2="215.0" y1="50" y2="51.5" /><line stroke="rgb(0%,100%,0%)" stroke-dasharray="1 1 9 1" stroke-width="0.03" x1="216.5" x2="216.5" y1="50" y2="51.5" /><line stroke="rgb(0%,100%,0%)" stroke-dasharray="1 1 9 1" stroke-width="0.03" x1="218.0" x2="218.0" y1="50" y2="51.5" /><line stroke="rgb(0%,100%,0%)" stroke-dasharray="1 1 9 1" stroke-width="0.03" x1="293.0" x2="293.0" y1="50" y2="51.5" /><line stroke="rgb(0%,100%,0%)" stroke-dasharray="1 1 9 1" stroke-width="0.03" x1="294.5" x2="294.5" y1="50" y2="51.5" /><line stroke="rgb(0%,100%,0%)" stroke-dasharray="1 1 9 1" stroke-width="0.03" x1="296.0" x2="296.0" y1="50" y2="51.5" /><line stroke="rgb(0%,100%,0%)" stroke-dasharray="1 1 9 1" stroke-width="0.03" x1="361.0" x2="361.0" y1="50" y2="51.5" /><line stroke="rgb(0%,100%,0%)" stroke-dasharray="1 1 9 1" stroke-width="0.03" x1="426.0" x2="426.0" y1="50" y2="51.5" /><line stroke="rgb(0%,100%,0%)" stroke-dasharray="1 1 9 1" stroke-width="0.03" x1="427.5" x2="427.5" y1="50" y2="51.5" /><line stroke="rgb(0%,100%,0%)" stroke-dasharray="1 1 9 1" stroke-width="0.03" x1="429.0" x2="429.0" y1="50" y2="51.5" /><line stroke="rgb(0%,100%,0%)" stroke-dasharray="1 1 9 1" stroke-width="0.03" x1="504.0" x2="504.0" y1="50" y2="51.5" /><line stroke="rgb(0%,100%,0%)" stroke-dasharray="1 1 9 1" stroke-width="0.03" x1="10" x2="10" y1="51.5" y2="53.0" /><line stroke="rgb(0%,100%,0%)" stroke-dasharray="1 1 9 1" stroke-width="0.03" x1="82" x2="82" y1="51.5" y2="53.0" /><line stroke="rgb(0%,100%,0%)" stroke-dasharray="1 1 9 1" stroke-width="0.03" x1="83.5" x2="83.5" y1="51.5" y2="53.0" /><line stroke="rgb(0%,100%,0%)" stroke-dasharray="1 1 9 1" stroke-width="0.03" x1="85.0" x2="85.0" y1="51.5" y2="53.0" /><line stroke="rgb(0%,100%,0%)" stroke-dasharray="1 1 9 1" stroke-width="0.03" x1="150.0" x2="150.0" y1="51.5" y2="53.0" /><line stroke="rgb(0%,100%,0%)" stroke-dasharray="1 1 9 1" stroke-width="0.03" x1="215.0" x2="215.0" y1="51.5" y2="53.0" /><line stroke="rgb(0%,100%,0%)" stroke-dasharray="1 1 9 1" stroke-width="0.03" x1="216.5" x2="216.5" y1="51.5" y2="53.0" /><line stroke="rgb(0%,100%,0%)" stroke-dasharray="1 1 9 1" stroke-width="0.03" x1="218.0" x2="218.0" y1="51.5" y2="53.0" /><line stroke="rgb(0%,100%,0%)" stroke-dasharray="1 1 9 1" stroke-width="0.03" x1="293.0" x2="293.0" y1="51.5" y2="53.0" /><line stroke="rgb(0%,100%,0%)" stroke-dasharray="1 1 9 1" stroke-width="0.03" x1="294.5" x2="294.5" y1="51.5" y2="53.0" /><line stroke="rgb(0%,100%,0%)" stroke-dasharray="1 1 9 1" stroke-width="0.03" x1="296.0" x2="296.0" y1="51.5" y2="53.0" /><line stroke="rgb(0%,100%,0%)" stroke-dasharray="1 1 9 1" stroke-width="0.03" x1="361.0" x2="361.0" y1="51.5" y2="53.0" /><line stroke="rgb(0%,100%,0%)" stroke-dasharray="1 1 9 1" stroke-width="0.03" x1="426.0" x2="426.0" y1="51.5" y2="53.0" /><line stroke="rgb(0%,100%,0%)" stroke-dasharray="1 1 9 1" stroke-width="0.03" x1="427.5" x2="427.5" y1="51.5" y2="53.0" /><line stroke="rgb(0%,100%,0%)" stroke-dasharray="1 1 9 1" stroke-width="0.03" x1="429.0" x2="429.0" y1="51.5" y2="53.0" /><line stroke="rgb(0%,100%,0%)" stroke-dasharray="1 1 9 1" stroke-width="0.03" x1="504.0" x2="504.0" y1="51.5" y2="53.0" /><line stroke="rgb(0%,100%,0%)" stroke-dasharray="1 1 9 1" stroke-width="0.03" x1="10" x2="10" y1="53.0" y2="131.0" /><line stroke="rgb(0%,100%,0%)" stroke-dasharray="1 1 9 1" stroke-width="0.03" x1="82" x2="82" y1="53.0" y2="131.0" /><line stroke="rgb(0%,100%,0%)" stroke-dasharray="1 1 9 1" stroke-width="0.03" x1="83.5" x2="83.5" y1="53.0" y2="131.0" /><line stroke="rgb(0%,100%,0%)" stroke-dasharray="1 1 9 1" stroke-width="0.03" x1="85.0" x2="85.0" y1="53.0" y2="131.0" /><line stroke="rgb(0%,100%,0%)" stroke-dasharray="1 1 9 1" stroke-width="0.03" x1="150.0" x2="150.0" y1="53.0" y2="131.0" /><line stroke="rgb(0%,100%,0%)" stroke-dasharray="1 1 9 1" stroke-width="0.03" x1="215.0" x2="215.0" y1="53.0" y2="131.0" /><line stroke="rgb(0%,100%,0%)" stroke-dasharray="1 1 9 1" stroke-width="0.03" x1="216.5" x2="216.5" y1="53.0" y2="131.0" /><line stroke="rgb(0%,100%,0%)" stroke-dasharray="1 1 9 1" stroke-width="0.03" x1="218.0" x2="218.0" y1="53.0" y2="131.0" /><line stroke="rgb(0%,100%,0%)" stroke-dasharray="1 1 9 1" stroke-width="0.03" x1="293.0" x2="293.0" y1="53.0" y2="131.0" /><line stroke="rgb(0%,100%,0%)" stroke-dasharray="1 1 9 1" stroke-width="0.03" x1="294.5" x2="294.5" y1="53.0" y2="131.0" /><line stroke="rgb(0%,100%,0%)" stroke-dasharray="1 1 9 1" stroke-width="0.03" x1="296.0" x2="296.0" y1="53.0" y2="131.0" /><line stroke="rgb(0%,100%,0%)" stroke-dasharray="1 1 9 1" stroke-width="0.03" x1="361.0" x2="361.0" y1="53.0" y2="131.0" /><line stroke="rgb(0%,100%,0%)" stroke-dasharray="1 1 9 1" stroke-width="0.03" x1="426.0" x2="426.0" y1="53.0" y2="131.0" /><line stroke="rgb(0%,100%,0%)" stroke-dasharray="1 1 9 1" stroke-width="0.03" x1="427.5" x2="427.5" y1="53.0" y2="131.0" /><line stroke="rgb(0%,100%,0%)" stroke-dasharray="1 1 9 1" stroke-width="0.03" x1="429.0" x2="429.0" y1="53.0" y2="131.0" /><line stroke="rgb(0%,100%,0%)" stroke-dasharray="1 1 9 1" stroke-width="0.03" x1="504.0" x2="504.0" y1="53.0" y2="131.0" /><line stroke="rgb(0%,100%,0%)" stroke-dasharray="1 1 9 1" stroke-width="0.03" x1="10" x2="10" y1="131.0" y2="132.5" /><line stroke="rgb(0%,100%,0%)" stroke-dasharray="1 1 9 1" stroke-width="0.03" x1="82" x2="82" y1="131.0" y2="132.5" /><line stroke="rgb(0%,100%,0%)" stroke-dasharray="1 1 9 1" stroke-width="0.03" x1="83.5" x2="83.5" y1="131.0" y2="132.5" /><line stroke="rgb(0%,100%,0%)" stroke-dasharray="1 1 9 1" stroke-width="0.03" x1="85.0" x2="85.0" y1="131.0" y2="132.5" /><line stroke="rgb(0%,100%,0%)" stroke-dasharray="1 1 9 1" stroke-width="0.03" x1="150.0" x2="150.0" y1="131.0" y2="132.5" /><line stroke="rgb(0%,100%,0%)" stroke-dasharray="1 1 9 1" stroke-width="0.03" x1="215.0" x2="215.0" y1="131.0" y2="132.5" /><line stroke="rgb(0%,100%,0%)" stroke-dasharray="1 1 9 1" stroke-width="0.03" x1="216.5" x2="216.5" y1="131.0" y2="132.5" /><line stroke="rgb(0%,100%,0%)" stroke-dasharray="1 1 9 1" stroke-width="0.03" x1="218.0" x2="218.0" y1="131.0" y2="132.5" /><line stroke="rgb(0%,100%,0%)" stroke-dasharray="1 1 9 1" stroke-width="0.03" x1="293.0" x2="293.0" y1="131.0" y2="132.5" /><line stroke="rgb(0%,100%,0%)" stroke-dasharray="1 1 9 1" stroke-width="0.03" x1="294.5" x2="294.5" y1="131.0" y2="132.5" /><line stroke="rgb(0%,100%,0%)" stroke-dasharray="1 1 9 1" stroke-width="0.03" x1="296.0" x2="296.0" y1="131.0" y2="132.5" /><line stroke="rgb(0%,100%,0%)" stroke-dasharray="1 1 9 1" stroke-width="0.03" x1="361.0" x2="361.0" y1="131.0" y2="132.5" /><line stroke="rgb(0%,100%,0%)" stroke-dasharray="1 1 9 1" stroke-width="0.03" x1="426.0" x2="426.0" y1="131.0" y2="132.5" /><line stroke="rgb(0%,100%,0%)" stroke-dasharray="1 1 9 1" stroke-width="0.03" x1="427.5" x2="427.5" y1="131.0" y2="132.5" /><line stroke="rgb(0%,100%,0%)" stroke-dasharray="1 1 9 1" stroke-width="0.03" x1="429.0" x2="429.0" y1="131.0" y2="132.5" /><line stroke="rgb(0%,100%,0%)" stroke-dasharray="1 1 9 1" stroke-width="0.03" x1="504.0" x2="504.0" y1="131.0" y2="132.5" /><line stroke="rgb(0%,100%,0%)" stroke-dasharray="1 1 9 1" stroke-width="0.03" x1="10" x2="10" y1="132.5" y2="134.0" /><line stroke="rgb(0%,100%,0%)" stroke-dasharray="1 1 9 1" stroke-width="0.03" x1="82" x2="82" y1="132.5" y2="134.0" /><line stroke="rgb(0%,100%,0%)" stroke-dasharray="1 1 9 1" stroke-width="0.03" x1="83.5" x2="83.5" y1="132.5" y2="134.0" /><line stroke="rgb(0%,100%,0%)" stroke-dasharray="1 1 9 1" stroke-width="0.03" x1="85.0" x2="85.0" y1="132.5" y2="134.0" /><line stroke="rgb(0%,100%,0%)" stroke-dasharray="1 1 9 1" stroke-width="0.03" x1="150.0" x2="150.0" y1="132.5" y2="134.0" /><line stroke="rgb(0%,100%,0%)" stroke-dasharray="1 1 9 1" stroke-width="0.03" x1="215.0" x2="215.0" y1="132.5" y2="134.0" /><line stroke="rgb(0%,100%,0%)" stroke-dasharray="1 1 9 1" stroke-width="0.03" x1="216.5" x2="216.5" y1="132.5" y2="134.0" /><line stroke="rgb(0%,100%,0%)" stroke-dasharray="1 1 9 1" stroke-width="0.03" x1="218.0" x2="218.0" y1="132.5" y2="134.0" /><line stroke="rgb(0%,100%,0%)" stroke-dasharray="1 1 9 1" stroke-width="0.03" x1="293.0" x2="293.0" y1="132.5" y2="134.0" /><line stroke="rgb(0%,100%,0%)" stroke-dasharray="1 1 9 1" stroke-width="0.03" x1="294.5" x2="294.5" y1="132.5" y2="134.0" /><line stroke="rgb(0%,100%,0%)" stroke-dasharray="1 1 9 1" stroke-width="0.03" x1="296.0" x2="296.0" y1="132.5" y2="134.0" /><line stroke="rgb(0%,100%,0%)" stroke-dasharray="1 1 9 1" stroke-width="0.03" x1="361.0" x2="361.0" y1="132.5" y2="134.0" /><line stroke="rgb(0%,100%,0%)" stroke-dasharray="1 1 9 1" stroke-width="0.03" x1="426.0" x2="426.0" y1="132.5" y2="134.0" /><line stroke="rgb(0%,100%,0%)" stroke-dasharray="1 1 9 1" stroke-width="0.03" x1="427.5" x2="427.5" y1="132.5" y2="134.0" /><line stroke="rgb(0%,100%,0%)" stroke-dasharray="1 1 9 1" stroke-width="0.03" x1="429.0" x2="429.0" y1="132.5" y2="134.0" /><line stroke="rgb(0%,100%,0%)" stroke-dasharray="1 1 9 1" stroke-width="0.03" x1="504.0" x2="504.0" y1="132.5" y2="134.0" /><line stroke="rgb(0%,100%,0%)" stroke-dasharray="1 1 9 1" stroke-width="0.03" x1="10" x2="10" y1="134.0" y2="141.0" /><line stroke="rgb(0%,100%,0%)" stroke-dasharray="1 1 9 1" stroke-width="0.03" x1="82" x2="82" y1="134.0" y2="141.0" /><line stroke="rgb(0%,100%,0%)" stroke-dasharray="1 1 9 1" stroke-width="0.03" x1="83.5" x2="83.5" y1="134.0" y2="141.0" /><line stroke="rgb(0%,100%,0%)" stroke-dasharray="1 1 9 1" stroke-width="0.03" x1="85.0" x2="85.0" y1="134.0" y2="141.0" /><line stroke="rgb(0%,100%,0%)" stroke-dasharray="1 1 9 1" stroke-width="0.03" x1="150.0" x2="150.0" y1="134.0" y2="141.0" /><line stroke="rgb(0%,100%,0%)" stroke-dasharray="1 1 9 1" stroke-width="0.03" x1="215.0" x2="215.0" y1="134.0" y2="141.0" /><line stroke="rgb(0%,100%,0%)" stroke-dasharray="1 1 9 1" stroke-width="0.03" x1="216.5" x2="216.5" y1="134.0" y2="141.0" /><line stroke="rgb(0%,100%,0%)" stroke-dasharray="1 1 9 1" stroke-width="0.03" x1="218.0" x2="218.0" y1="134.0" y2="141.0" /><line stroke="rgb(0%,100%,0%)" stroke-dasharray="1 1 9 1" stroke-width="0.03" x1="293.0" x2="293.0" y1="134.0" y2="141.0" /><line stroke="rgb(0%,100%,0%)" stroke-dasharray="1 1 9 1" stroke-width="0.03" x1="294.5" x2="294.5" y1="134.0" y2="141.0" /><line stroke="rgb(0%,100%,0%)" stroke-dasharray="1 1 9 1" stroke-width="0.03" x1="296.0" x2="296.0" y1="134.0" y2="141.0" /><line stroke="rgb(0%,100%,0%)" stroke-dasharray="1 1 9 1" stroke-width="0.03" x1="361.0" x2="361.0" y1="134.0" y2="141.0" /><line stroke="rgb(0%,100%,0%)" stroke-dasharray="1 1 9 1" stroke-width="0.03" x1="426.0" x2="426.0" y1="134.0" y2="141.0" /><line stroke="rgb(0%,100%,0%)" stroke-dasharray="1 1 9 1" stroke-width="0.03" x1="427.5" x2="427.5" y1="134.0" y2="141.0" /><line stroke="rgb(0%,100%,0%)" stroke-dasharray="1 1 9 1" stroke-width="0.03" x1="429.0" x2="429.0" y1="134.0" y2="141.0" /><line stroke="rgb(0%,100%,0%)" stroke-dasharray="1 1 9 1" stroke-width="0.03" x1="504.0" x2="504.0" y1="134.0" y2="141.0" /><line stroke="rgb(0%,100%,0%)" stroke-dasharray="1 1 9 1" stroke-width="0.03" x1="10" x2="10" y1="141.0" y2="161.0" /><line stroke="rgb(0%,100%,0%)" stroke-dasharray="1 1 9 1" stroke-width="0.03" x1="82" x2="82" y1="141.0" y2="161.0" /><line stroke="rgb(0%,100%,0%)" stroke-dasharray="1 1 9 1" stroke-width="0.03" x1="83.5" x2="83.5" y1="141.0" y2="161.0" /><line stroke="rgb(0%,100%,0%)" stroke-dasharray="1 1 9 1" stroke-width="0.03" x1="85.0" x2="85.0" y1="141.0" y2="161.0" /><line stroke="rgb(0%,100%,0%)" stroke-dasharray="1 1 9 1" stroke-width="0.03" x1="150.0" x2="150.0" y1="141.0" y2="161.0" /><line stroke="rgb(0%,100%,0%)" stroke-dasharray="1 1 9 1" stroke-width="0.03" x1="215.0" x2="215.0" y1="141.0" y2="161.0" /><line stroke="rgb(0%,100%,0%)" stroke-dasharray="1 1 9 1" stroke-width="0.03" x1="216.5" x2="216.5" y1="141.0" y2="161.0" /><line stroke="rgb(0%,100%,0%)" stroke-dasharray="1 1 9 1" stroke-width="0.03" x1="218.0" x2="218.0" y1="141.0" y2="161.0" /><line stroke="rgb(0%,100%,0%)" stroke-dasharray="1 1 9 1" stroke-width="0.03" x1="293.0" x2="293.0" y1="141.0" y2="161.0" /><line stroke="rgb(0%,100%,0%)" stroke-dasharray="1 1 9 1" stroke-width="0.03" x1="294.5" x2="294.5" y1="141.0" y2="161.0" /><line stroke="rgb(0%,100%,0%)" stroke-dasharray="1 1 9 1" stroke-width="0.03" x1="296.0" x2="296.0" y1="141.0" y2="161.0" /><line stroke="rgb(0%,100%,0%)" stroke-dasharray="1 1 9 1" stroke-width="0.03" x1="361.0" x2="361.0" y1="141.0" y2="161.0" /><line stroke="rgb(0%,100%,0%)" stroke-dasharray="1 1 9 1" stroke-width="0.03" x1="426.0" x2="426.0" y1="141.0" y2="161.0" /><line stroke="rgb(0%,100%,0%)" stroke-dasharray="1 1 9 1" stroke-width="0.03" x1="427.5" x2="427.5" y1="141.0" y2="161.0" /><line stroke="rgb(0%,100%,0%)" stroke-dasharray="1 1 9 1" stroke-width="0.03" x1="429.0" x2="429.0" y1="141.0" y2="161.0" /><line stroke="rgb(0%,100%,0%)" stroke-dasharray="1 1 9 1" stroke-width="0.03" x1="504.0" x2="504.0" y1="141.0" y2="161.0" /><line stroke="rgb(0%,100%,0%)" stroke-dasharray="1 1 9 1" stroke-width="0.03" x1="10" x2="10" y1="161.0" y2="181.0" /><line stroke="rgb(0%,100%,0%)" stroke-dasharray="1 1 9 1" stroke-width="0.03" x1="82" x2="82" y1="161.0" y2="181.0" /><line stroke="rgb(0%,100%,0%)" stroke-dasharray="1 1 9 1" stroke-width="0.03" x1="83.5" x2="83.5" y1="161.0" y2="181.0" /><line stroke="rgb(0%,100%,0%)" stroke-dasharray="1 1 9 1" stroke-width="0.03" x1="85.0" x2="85.0" y1="161.0" y2="181.0" /><line stroke="rgb(0%,100%,0%)" stroke-dasharray="1 1 9 1" stroke-width="0.03" x1="150.0" x2="150.0" y1="161.0" y2="181.0" /><line stroke="rgb(0%,100%,0%)" stroke-dasharray="1 1 9 1" stroke-width="0.03" x1="215.0" x2="215.0" y1="161.0" y2="181.0" /><line stroke="rgb(0%,100%,0%)" stroke-dasharray="1 1 9 1" stroke-width="0.03" x1="216.5" x2="216.5" y1="161.0" y2="181.0" /><line stroke="rgb(0%,100%,0%)" stroke-dasharray="1 1 9 1" stroke-width="0.03" x1="218.0" x2="218.0" y1="161.0" y2="181.0" /><line stroke="rgb(0%,100%,0%)" stroke-dasharray="1 1 9 1" stroke-width="0.03" x1="293.0" x2="293.0" y1="161.0" y2="181.0" /><line stroke="rgb(0%,100%,0%)" stroke-dasharray="1 1 9 1" stroke-width="0.03" x1="294.5" x2="294.5" y1="161.0" y2="181.0" /><line stroke="rgb(0%,100%,0%)" stroke-dasharray="1 1 9 1" stroke-width="0.03" x1="296.0" x2="296.0" y1="161.0" y2="181.0" /><line stroke="rgb(0%,100%,0%)" stroke-dasharray="1 1 9 1" stroke-width="0.03" x1="361.0" x2="361.0" y1="161.0" y2="181.0" /><line stroke="rgb(0%,100%,0%)" stroke-dasharray="1 1 9 1" stroke-width="0.03" x1="426.0" x2="426.0" y1="161.0" y2="181.0" /><line stroke="rgb(0%,100%,0%)" stroke-dasharray="1 1 9 1" stroke-width="0.03" x1="427.5" x2="427.5" y1="161.0" y2="181.0" /><line stroke="rgb(0%,100%,0%)" stroke-dasharray="1 1 9 1" stroke-width="0.03" x1="429.0" x2="429.0" y1="161.0" y2="181.0" /><line stroke="rgb(0%,100%,0%)" stroke-dasharray="1 1 9 1" stroke-width="0.03" x1="504.0" x2="504.0" y1="161.0" y2="181.0" /><line stroke="rgb(0%,100%,0%)" stroke-dasharray="1 1 9 1" stroke-width="0.03" x1="10" x2="10" y1="181.0" y2="221.0" /><line stroke="rgb(0%,100%,0%)" stroke-dasharray="1 1 9 1" stroke-width="0.03" x1="82" x2="82" y1="181.0" y2="221.0" /><line stroke="rgb(0%,100%,0%)" stroke-dasharray="1 1 9 1" stroke-width="0.03" x1="83.5" x2="83.5" y1="181.0" y2="221.0" /><line stroke="rgb(0%,100%,0%)" stroke-dasharray="1 1 9 1" stroke-width="0.03" x1="85.0" x2="85.0" y1="181.0" y2="221.0" /><line stroke="rgb(0%,100%,0%)" stroke-dasharray="1 1 9 1" stroke-width="0.03" x1="150.0" x2="150.0" y1="181.0" y2="221.0" /><line stroke="rgb(0%,100%,0%)" stroke-dasharray="1 1 9 1" stroke-width="0.03" x1="215.0" x2="215.0" y1="181.0" y2="221.0" /><line stroke="rgb(0%,100%,0%)" stroke-dasharray="1 1 9 1" stroke-width="0.03" x1="216.5" x2="216.5" y1="181.0" y2="221.0" /><line stroke="rgb(0%,100%,0%)" stroke-dasharray="1 1 9 1" stroke-width="0.03" x1="218.0" x2="218.0" y1="181.0" y2="221.0" /><line stroke="rgb(0%,100%,0%)" stroke-dasharray="1 1 9 1" stroke-width="0.03" x1="293.0" x2="293.0" y1="181.0" y2="221.0" /><line stroke="rgb(0%,100%,0%)" stroke-dasharray="1 1 9 1" stroke-width="0.03" x1="294.5" x2="294.5" y1="181.0" y2="221.0" /><line stroke="rgb(0%,100%,0%)" stroke-dasharray="1 1 9 1" stroke-width="0.03" x1="296.0" x2="296.0" y1="181.0" y2="221.0" /><line stroke="rgb(0%,100%,0%)" stroke-dasharray="1 1 9 1" stroke-width="0.03" x1="361.0" x2="361.0" y1="181.0" y2="221.0" /><line stroke="rgb(0%,100%,0%)" stroke-dasharray="1 1 9 1" stroke-width="0.03" x1="426.0" x2="426.0" y1="181.0" y2="221.0" /><line stroke="rgb(0%,100%,0%)" stroke-dasharray="1 1 9 1" stroke-width="0.03" x1="427.5" x2="427.5" y1="181.0" y2="221.0" /><line stroke="rgb(0%,100%,0%)" stroke-dasharray="1 1 9 1" stroke-width="0.03" x1="429.0" x2="429.0" y1="181.0" y2="221.0" /><line stroke="rgb(0%,100%,0%)" stroke-dasharray="1 1 9 1" stroke-width="0.03" x1="504.0" x2="504.0" y1="181.0" y2="221.0" /><line stroke="rgb(0%,0%,0%)" stroke-width="0.05" x1="10" x2="10" y1="141.0" y2="221.0" /><line stroke="rgb(0%,0%,0%)" stroke-width="0.05" x1="85.0" x2="85.0" y1="141.0" y2="10" /><line stroke="rgb(0%,0%,0%)" stroke-width="0.05" x1="215.0" x2="215.0" y1="141.0" y2="10" /><line stroke="rgb(0%,0%,0%)" stroke-width="0.05" x1="504.0" x2="504.0" y1="141.0" y2="221.0" /><line stroke="rgb(0%,0%,0%)" stroke-width="0.05" x1="10" x2="85.0" y1="141.0" y2="141.0" /><line stroke="rgb(0%,0%,0%)" stroke-width="0.05" x1="85.0" x2="215.0" y1="10" y2="10" /><line stroke="rgb(0%,0%,0%)" stroke-width="0.05" x1="215.0" x2="504.0" y1="141.0" y2="141.0" /><line stroke="rgb(0%,0%,0%)" stroke-width="0.05" x1="10" x2="85.0" y1="221.0" y2="221.0" /><line stroke="rgb(0%,0%,0%)" stroke-width="0.05" x1="85.0" x2="215.0" y1="221.0" y2="221.0" /><line stroke="rgb(0%,0%,0%)" stroke-width="0.05" x1="215.0" x2="296.0" y1="221.0" y2="221.0" /><line stroke="rgb(0%,0%,0%)" stroke-width="0.05" x1="296.0" x2="426.0" y1="221.0" y2="221.0" /><line stroke="rgb(0%,0%,0%)" stroke-width="0.05" x1="426.0" x2="504.0" y1="221.0" y2="221.0" /><rect fill="white" height="3" stroke="rgb(0%,0%,0%)" stroke-width="0.05" width="20" x="37.5" y="179.5" /><rect fill="white" height="3" stroke="rgb(0%,0%,0%)" stroke-width="0.05" width="20" x="107.5" y="179.5" /><rect fill="white" height="3" stroke="rgb(0%,0%,0%)" stroke-width="0.05" width="20" x="172.5" y="179.5" /><rect fill="white" height="3" stroke="rgb(0%,0%,0%)" stroke-width="0.05" width="20" x="245.5" y="179.5" /><rect fill="white" height="3" stroke="rgb(0%,0%,0%)" stroke-width="0.05" width="20" x="318.5" y="179.5" /><rect fill="white" height="3" stroke="rgb(0%,0%,0%)" stroke-width="0.05" width="20" x="383.5" y="179.5" /><rect fill="white" height="3" stroke="rgb(0%,0%,0%)" stroke-width="0.05" width="20" x="455.0" y="179.5" /><rect fill="white" height="10.0" stroke="rgb(0%,0%,0%)" stroke-width="0.05" width="3" x="148.5" y="146.0" /><rect fill="white" height="20" stroke="rgb(0%,0%,0%)" stroke-width="0.05" width="3" x="359.5" y="151.0" /><line stroke="rgb(100%,0%,0%)" stroke-width="0.05" x1="85.0" x2="215.0" y1="132.5" y2="132.5" /><line stroke="rgb(100%,0%,0%)" stroke-width="0.05" x1="85.0" x2="215.0" y1="51.5" y2="51.5" /><line stroke="rgb(100%,0%,0%)" stroke-width="0.05" x1="83.5" x2="83.5" y1="221.0" y2="141.0" /><line stroke="rgb(100%,0%,0%)" stroke-width="0.05" x1="216.5" x2="216.5" y1="221.0" y2="141.0" /><line stroke="rgb(100%,0%,0%)" stroke-width="0.05" x1="294.5" x2="294.5" y1="221.0" y2="141.0" /><line stroke="rgb(100%,0%,0%)" stroke-width="0.05" x1="427.5" x2="427.5" y1="221.0" y2="141.0" /><line stroke="rgb(0%,0%,0%)" stroke-width="0.05" x1="296.0" x2="318.5" y1="131.0" y2="131.0" /><line stroke="rgb(0%,0%,0%)" stroke-width="0.05" x1="318.5" x2="318.5" y1="131.0" y2="134.0" /><line stroke="rgb(0%,0%,0%)" stroke-width="0.05" x1="318.5" x2="338.5" y1="134.0" y2="134.0" /><line stroke="rgb(0%,0%,0%)" stroke-width="0.05" x1="338.5" x2="338.5" y1="134.0" y2="131.0" /><line stroke="rgb(0%,0%,0%)" stroke-width="0.05" x1="338.5" x2="361.0" y1="131.0" y2="131.0" /><line stroke="rgb(0%,0%,0%)" stroke-width="0.05" x1="361.0" x2="383.5" y1="131.0" y2="131.0" /><line stroke="rgb(0%,0%,0%)" stroke-width="0.05" x1="383.5" x2="383.5" y1="131.0" y2="134.0" /><line stroke="rgb(0%,0%,0%)" stroke-width="0.05" x1="383.5" x2="403.5" y1="134.0" y2="134.0" /><line stroke="rgb(0%,0%,0%)" stroke-width="0.05" x1="403.5" x2="403.5" y1="134.0" y2="131.0" /><line stroke="rgb(0%,0%,0%)" stroke-width="0.05" x1="403.5" x2="426.0" y1="131.0" y2="131.0" /><line stroke="rgb(0%,0%,0%)" stroke-width="0.05" x1="296.0" x2="318.5" y1="53.0" y2="53.0" /><line stroke="rgb(0%,0%,0%)" stroke-width="0.05" x1="318.5" x2="318.5" y1="53.0" y2="50.0" /><line stroke="rgb(0%,0%,0%)" stroke-width="0.05" x1="318.5" x2="338.5" y1="50.0" y2="50.0" /><line stroke="rgb(0%,0%,0%)" stroke-width="0.05" x1="338.5" x2="338.5" y1="50.0" y2="53.0" /><line stroke="rgb(0%,0%,0%)" stroke-width="0.05" x1="338.5" x2="361.0" y1="53.0" y2="53.0" /><line stroke="rgb(0%,0%,0%)" stroke-width="0.05" x1="361.0" x2="383.5" y1="53.0" y2="53.0" /><line stroke="rgb(0%,0%,0%)" stroke-width="0.05" x1="383.5" x2="383.5" y1="53.0" y2="50.0" /><line stroke="rgb(0%,0%,0%)" stroke-width="0.05" x1="383.5" x2="403.5" y1="50.0" y2="50.0" /><line stroke="rgb(0%,0%,0%)" stroke-width="0.05" x1="403.5" x2="403.5" y1="50.0" y2="53.0" /><line stroke="rgb(0%,0%,0%)" stroke-width="0.05" x1="403.5" x2="426.0" y1="53.0" y2="53.0" /><line stroke="rgb(0%,0%,0%)" stroke-width="0.05" x1="296.0" x2="296.0" y1="53.0" y2="82.0" /><line stroke="rgb(0%,0%,0%)" stroke-width="0.05" x1="296.0" x2="293.0" y1="82.0" y2="82.0" /><line stroke="rgb(0%,0%,0%)" stroke-width="0.05" x1="293.0" x2="293.0" y1="82.0" y2="102.0" /><line stroke="rgb(0%,0%,0%)" stroke-width="0.05" x1="293.0" x2="296.0" y1="102.0" y2="102.0" /><line stroke="rgb(0%,0%,0%)" stroke-width="0.05" x1="296.0" x2="296.0" y1="102.0" y2="131.0" /><line stroke="rgb(0%,0%,0%)" stroke-width="0.05" x1="426.0" x2="426.0" y1="53.0" y2="82.0" /><line stroke="rgb(0%,0%,0%)" stroke-width="0.05" x1="426.0" x2="429.0" y1="82.0" y2="82.0" /><line stroke="rgb(0%,0%,0%)" stroke-width="0.05" x1="429.0" x2="429.0" y1="82.0" y2="102.0" /><line stroke="rgb(0%,0%,0%)" stroke-width="0.05" x1="429.0" x2="426.0" y1="102.0" y2="102.0" /><line stroke="rgb(0%,0%,0%)" stroke-width="0.05" x1="426.0" x2="426.0" y1="102.0" y2="131.0" /></svg>