<?xml version="1.0" encoding="utf-8" ?>
<svg baseProfile="full" height="300mm" version="1.1" viewBox="0 0 600 300" width="600mm" xmlns="http://www.w3.org/2000/svg" xmlns:ev="http://www.w3.org/2001/xml-events" xmlns:xlink="http://www.w3.org/1999/xlink"><defs /><line stroke="rgb(0%,100%,0%)" stroke-dasharray="1 1 9 1" stroke-width="0.03" x1="0" x2="10" y1="10" y2="10" /><line stroke="rgb(0%,100%,0%)" stroke-dasharray="1 1 9 1" stroke-width="0.03" x1="0" x2="10" y1="50" y2="50" /><line stroke="rgb(0%,100%,0%)" stroke-dasharray="1 1 9 1" stroke-width="0.03" x1="0" x2="10" y1="51" y2="51" /><line stroke="rgb(0%,100%,0%)" stroke-dasharray="1 1 9 1" stroke-width="0.03" x1="0" x2="10" y1="52" y2="52" /><line stroke="rgb(0%,100%,0%)" stroke-dasharray="1 1 9 1" stroke-width="0.03" x1="0" x2="10" y1="130" y2="130" /><line stroke="rgb(0%,100%,0%)" stroke-dasharray="1 1 9 1" stroke-width="0.03" x1="0" x2="10" y1="131" y2="131" /><line stroke="rgb(0%,100%,0%)" stroke-dasharray="1 1 9 1" stroke-width="0.03" x1="0" x2="10" y1="132" y2="132" /><line stroke="rgb(0%,100%,0%)" stroke-dasharray="1 1 9 1" stroke-width="0.03" x1="0" x2="10" y1="139" y2="139" /><line stroke="rgb(0%,100%,0%)" stroke-dasharray="1 1 9 1" stroke-width="0.03" x1="0" x2="10" y1="159" y2="159" /><line stroke="rgb(0%,100%,0%)" stroke-dasharray="1 1 9 1" stroke-width="0.03" x1="0" x2="10" y1="179" y2="179" /><line stroke="rgb(0%,100%,0%)" stroke-dasharray="1 1 9 1" stroke-width="0.03" x1="0" x2="10" y1="219" y2="219" /><line stroke="rgb(0%,100%,0%)" stroke-dasharray="1 1 9 1" stroke-width="0.03" x1="10" x2="82" y1="10" y2="10" /><line stroke="rgb(0%,100%,0%)" stroke-dasharray="1 1 9 1" stroke-width="0.03" x1="10" x2="82" y1="50" y2="50" /><line stroke="rgb(0%,100%,0%)" stroke-dasharray="1 1 9 1" stroke-width="0.03" x1="10" x2="82" y1="51" y2="51" /><line stroke="rgb(0%,100%,0%)" stroke-dasharray="1 1 9 1" stroke-width="0.03" x1="10" x2="82" y1="52" y2="52" /><line stroke="rgb(0%,100%,0%)" stroke-dasharray="1 1 9 1" stroke-width="0.03" x1="10" x2="82" y1="130" y2="130" /><line stroke="rgb(0%,100%,0%)" stroke-dasharray="1 1 9 1" stroke-width="0.03" x1="10" x2="82" y1="131" y2="131" /><line stroke="rgb(0%,100%,0%)" stroke-dasharray="1 1 9 1" stroke-width="0.03" x1="10" x2="82" y1="132" y2="132" /><line stroke="rgb(0%,100%,0%)" stroke-dasharray="1 1 9 1" stroke-width="0.03" x1="10" x2="82" y1="139" y2="139" /><line stroke="rgb(0%,100%,0%)" stroke-dasharray="1 1 9 1" stroke-width="0.03" x1="10" x2="82" y1="159" y2="159" /><line stroke="rgb(0%,100%,0%)" stroke-dasharray="1 1 9 1" stroke-width="0.03" x1="10" x2="82" y1="179" y2="179" /><line stroke="rgb(0%,100%,0%)" stroke-dasharray="1 1 9 1" stroke-width="0.03" x1="10" x2="82" y1="219" y2="219" /><line stroke="rgb(0%,100%,0%)" stroke-dasharray="1 1 9 1" stroke-width="0.03" x1="82" x2="83" y1="10" y2="10" /><line stroke="rgb(0%,100%,0%)" stroke-dasharray="1 1 9 1" stroke-width="0.03" x1="82" x2="83" y1="50" y2="50" /><line stroke="rgb(0%,100%,0%)" stroke-dasharray="1 1 9 1" stroke-width="0.03" x1="82" x2="83" y1="51" y2="51" /><line stroke="rgb(0%,100%,0%)" stroke-dasharray="1 1 9 1" stroke-width="0.03" x1="82" x2="83" y1="52" y2="52" /><line stroke="rgb(0%,100%,0%)" stroke-dasharray="1 1 9 1" stroke-width="0.03" x1="82" x2="83" y1="130" y2="130" /><line stroke="rgb(0%,100%,0%)" stroke-dasharray="1 1 9 1" stroke-width="0.03" x1="82" x2="83" y1="131" y2="131" /><line stroke="rgb(0%,100%,0%)" stroke-dasharray="1 1 9 1" stroke-width="0.03" x1="82" x2="83" y1="132" y2="132" /><line stroke="rgb(0%,100%,0%)" stroke-dasharray="1 1 9 1" stroke-width="0.03" x1="82" x2="83" y1="139" y2="139" /><line stroke="rgb(0%,100%,0%)" stroke-dasharray="1 1 9 1" stroke-width="0.03" x1="82" x2="83" y1="159" y2="159" /><line stroke="rgb(0%,100%,0%)" stroke-dasharray="1 1 9 1" stroke-width="0.03" x1="82" x2="83" y1="179" y2="179" /><line stroke="rgb(0%,100%,0%)" stroke-dasharray="1 1 9 1" stroke-width="0.03" x1="82" x2="83" y1="219" y2="219" /><line stroke="rgb(0%,100%,0%)" stroke-dasharray="1 1 9 1" stroke-width="0.03" x1="83" x2="84" y1="10" y2="10" /><line stroke="rgb(0%,100%,0%)" stroke-dasharray="1 1 9 1" stroke-width="0.03" x1="83" x2="84" y1="50" y2="50" /><line stroke="rgb(0%,100%,0%)" stroke-dasharray="1 1 9 1" stroke-width="0.03" x1="83" x2="84" y1="51" y2="51" /><line stroke="rgb(0%,100%,0%)" stroke-dasharray="1 1 9 1" stroke-width="0.03" x1="83" x2="84" y1="52" y2="52" /><line stroke="rgb(0%,100%,0%)" stroke-dasharray="1 1 9 1" stroke-width="0.03" x1="83" x2="84" y1="130" y2="130" /><line stroke="rgb(0%,100%,0%)" stroke-dasharray="1 1 9 1" stroke-width="0.03" x1="83" x2="84" y1="131" y2="131" /><line stroke="rgb(0%,100%,0%)" stroke-dasharray="1 1 9 1" stroke-width="0.03" x1="83" x2="84" y1="132" y2="132" /><line stroke="rgb(0%,100%,0%)" stroke-dasharray="1 1 9 1" stroke-width="0.03" x1="83" x2="84" y1="139" y2="139" /><line stroke="rgb(0%,100%,0%)" stroke-dasharray="1 1 9 1" stroke-width="0.03" x1="83" x2="84" y1="159" y2="159" /><line stroke="rgb(0%,100%,0%)" stroke-dasharray="1 1 9 1" stroke-width="0.03" x1="83" x2="84" y1="179" y2="179" /><line stroke="rgb(0%,100%,0%)" stroke-dasharray="1 1 9 1" stroke-width="0.03" x1="83" x2="84" y1="219" y2="219" /><line stroke="rgb(0%,100%,0%)" stroke-dasharray="1 1 9 1" stroke-width="0.03" x1="84" x2="151" y1="10" y2="10" /><line stroke="rgb(0%,100%,0%)" stroke-dasharray="1 1 9 1" stroke-width="0.03" x1="84" x2="151" y1="50" y2="50" /><line stroke="rgb(0%,100%,0%)" stroke-dasharray="1 1 9 1" stroke-width="0.03" x1="84" x2="151" y1="51" y2="51" /><line stroke="rgb(0%,100%,0%)" stroke-dasharray="1 1 9 1" stroke-width="0.03" x1="84" x2="151" y1="52" y2="52" /><line stroke="rgb(0%,100%,0%)" stroke-dasharray="1 1 9 1" stroke-width="0.03" x1="84" x2="151" y1="130" y2="130" /><line stroke="rgb(0%,100%,0%)" stroke-dasharray="1 1 9 1" stroke-width="0.03" x1="84" x2="151" y1="131" y2="131" /><line stroke="rgb(0%,100%,0%)" stroke-dasharray="1 1 9 1" stroke-width="0.03" x1="84" x2="151" y1="132" y2="132" /><line stroke="rgb(0%,100%,0%)" stroke-dasharray="1 1 9 1" stroke-width="0.03" x1="84" x2="151" y1="139" y2="139" /><line stroke="rgb(0%,100%,0%)" stroke-dasharray="1 1 9 1" stroke-width="0.03" x1="84" x2="151" y1="159" y2="159" /><line stroke="rgb(0%,100%,0%)" stroke-dasharray="1 1 9 1" stroke-width="0.03" x1="84" x2="151" y1="179" y2="179" /><line stroke="rgb(0%,100%,0%)" stroke-dasharray="1 1 9 1" stroke-width="0.03" x1="84" x2="151" y1="219" y2="219" /><line stroke="rgb(0%,100%,0%)" stroke-dasharray="1 1 9 1" stroke-width="0.03" x1="151" x2="218" y1="10" y2="10" /><line stroke="rgb(0%,100%,0%)" stroke-dasharray="1 1 9 1" stroke-width="0.03" x1="151" x2="218" y1="50" y2="50" /><line stroke="rgb(0%,100%,0%)" stroke-dasharray="1 1 9 1" stroke-width="0.03" x1="151" x2="218" y1="51" y2="51" /><line stroke="rgb(0%,100%,0%)" stroke-dasharray="1 1 9 1" stroke-width="0.03" x1="151" x2="218" y1="52" y2="52" /><line stroke="rgb(0%,100%,0%)" stroke-dasharray="1 1 9 1" stroke-width="0.03" x1="151" x2="218" y1="130" y2="130" /><line stroke="rgb(0%,100%,0%)" stroke-dasharray="1 1 9 1" stroke-width="0.03" x1="151" x2="218" y1="131" y2="131" /><line stroke="rgb(0%,100%,0%)" stroke-dasharray="1 1 9 1" stroke-width="0.03" x1="151" x2="218" y1="132" y2="132" /><line stroke="rgb(0%,100%,0%)" stroke-dasharray="1 1 9 1" stroke-width="0.03" x1="151" x2="218" y1="139" y2="139" /><line stroke="rgb(0%,100%,0%)" stroke-dasharray="1 1 9 1" stroke-width="0.03" x1="151" x2="218" y1="159" y2="159" /><line stroke="rgb(0%,100%,0%)" stroke-dasharray="1 1 9 1" stroke-width="0.03" x1="151" x2="218" y1="179" y2="179" /><line stroke="rgb(0%,100%,0%)" stroke-dasharray="1 1 9 1" stroke-width="0.03" x1="151" x2="218" y1="219" y2="219" /><line stroke="rgb(0%,100%,0%)" stroke-dasharray="1 1 9 1" stroke-width="0.03" x1="218" x2="219" y1="10" y2="10" /><line stroke="rgb(0%,100%,0%)" stroke-dasharray="1 1 9 1" stroke-width="0.03" x1="218" x2="219" y1="50" y2="50" /><line stroke="rgb(0%,100%,0%)" stroke-dasharray="1 1 9 1" stroke-width="0.03" x1="218" x2="219" y1="51" y2="51" /><line stroke="rgb(0%,100%,0%)" stroke-dasharray="1 1 9 1" stroke-width="0.03" x1="218" x2="219" y1="52" y2="52" /><line stroke="rgb(0%,100%,0%)" stroke-dasharray="1 1 9 1" stroke-width="0.03" x1="218" x2="219" y1="130" y2="130" /><line stroke="rgb(0%,100%,0%)" stroke-dasharray="1 1 9 1" stroke-width="0.03" x1="218" x2="219" y1="131" y2="131" /><line stroke="rgb(0%,100%,0%)" stroke-dasharray="1 1 9 1" stroke-width="0.03" x1="218" x2="219" y1="132" y2="132" /><line stroke="rgb(0%,100%,0%)" stroke-dasharray="1 1 9 1" stroke-width="0.03" x1="218" x2="219" y1="139" y2="139" /><line stroke="rgb(0%,100%,0%)" stroke-dasharray="1 1 9 1" stroke-width="0.03" x1="218" x2="219" y1="159" y2="159" /><line stroke="rgb(0%,100%,0%)" stroke-dasharray="1 1 9 1" stroke-width="0.03" x1="218" x2="219" y1="179" y2="179" /><line stroke="rgb(0%,100%,0%)" stroke-dasharray="1 1 9 1" stroke-width="0.03" x1="218" x2="219" y1="219" y2="219" /><line stroke="rgb(0%,100%,0%)" stroke-dasharray="1 1 9 1" stroke-width="0.03" x1="219" x2="220" y1="10" y2="10" /><line stroke="rgb(0%,100%,0%)" stroke-dasharray="1 1 9 1" stroke-width="0.03" x1="219" x2="220" y1="50" y2="50" /><line stroke="rgb(0%,100%,0%)" stroke-dasharray="1 1 9 1" stroke-width="0.03" x1="219" x2="220" y1="51" y2="51" /><line stroke="rgb(0%,100%,0%)" stroke-dasharray="1 1 9 1" stroke-width="0.03" x1="219" x2="220" y1="52" y2="52" /><line stroke="rgb(0%,100%,0%)" stroke-dasharray="1 1 9 1" stroke-width="0.03" x1="219" x2="220" y1="130" y2="130" /><line stroke="rgb(0%,100%,0%)" stroke-dasharray="1 1 9 1" stroke-width="0.03" x1="219" x2="220" y1="131" y2="131" /><line stroke="rgb(0%,100%,0%)" stroke-dasharray="1 1 9 1" stroke-width="0.03" x1="219" x2="220" y1="132" y2="132" /><line stroke="rgb(0%,100%,0%)" stroke-dasharray="1 1 9 1" stroke-width="0.03" x1="219" x2="220" y1="139" y2="139" /><line stroke="rgb(0%,100%,0%)" stroke-dasharray="1 1 9 1" stroke-width="0.03" x1="219" x2="220" y1="159" y2="159" /><line stroke="rgb(0%,100%,0%)" stroke-dasharray="1 1 9 1" stroke-width="0.03" x1="219" x2="220" y1="179" y2="179" /><line stroke="rgb(0%,100%,0%)" stroke-dasharray="1 1 9 1" stroke-width="0.03" x1="219" x2="220" y1="219" y2="219" /><line stroke="rgb(0%,100%,0%)" stroke-dasharray="1 1 9 1" stroke-width="0.03" x1="220" x2="295" y1="10" y2="10" /><line stroke="rgb(0%,100%,0%)" stroke-dasharray="1 1 9 1" stroke-width="0.03" x1="220" x2="295" y1="50" y2="50" /><line stroke="rgb(0%,100%,0%)" stroke-dasharray="1 1 9 1" stroke-width="0.03" x1="220" x2="295" y1="51" y2="51" /><line stroke="rgb(0%,100%,0%)" stroke-dasharray="1 1 9 1" stroke-width="0.03" x1="220" x2="295" y1="52" y2="52" /><line stroke="rgb(0%,100%,0%)" stroke-dasharray="1 1 9 1" stroke-width="0.03" x1="220" x2="295" y1="130" y2="130" /><line stroke="rgb(0%,100%,0%)" stroke-dasharray="1 1 9 1" stroke-width="0.03" x1="220" x2="295" y1="131" y2="131" /><line stroke="rgb(0%,100%,0%)" stroke-dasharray="1 1 9 1" stroke-width="0.03" x1="220" x2="295" y1="132" y2="132" /><line stroke="rgb(0%,100%,0%)" stroke-dasharray="1 1 9 1" stroke-width="0.03" x1="220" x2="295" y1="139" y2="139" /><line stroke="rgb(0%,100%,0%)" stroke-dasharray="1 1 9 1" stroke-width="0.03" x1="220" x2="295" y1="159" y2="159" /><line stroke="rgb(0%,100%,0%)" stroke-dasharray="1 1 9 1" stroke-width="0.03" x1="220" x2="295" y1="179" y2="179" /><line stroke="rgb(0%,100%,0%)" stroke-dasharray="1 1 9 1" stroke-width="0.03" x1="220" x2="295" y1="219" y2="219" /><line stroke="rgb(0%,100%,0%)" stroke-dasharray="1 1 9 1" stroke-width="0.03" x1="295" x2="296" y1="10" y2="10" /><line stroke="rgb(0%,100%,0%)" stroke-dasharray="1 1 9 1" stroke-width="0.03" x1="295" x2="296" y1="50" y2="50" /><line stroke="rgb(0%,100%,0%)" stroke-dasharray="1 1 9 1" stroke-width="0.03" x1="295" x2="296" y1="51" y2="51" /><line stroke="rgb(0%,100%,0%)" stroke-dasharray="1 1 9 1" stroke-width="0.03" x1="295" x2="296" y1="52" y2="52" /><line stroke="rgb(0%,100%,0%)" stroke-dasharray="1 1 9 1" stroke-width="0.03" x1="295" x2="296" y1="130" y2="130" /><line stroke="rgb(0%,100%,0%)" stroke-dasharray="1 1 9 1" stroke-width="0.03" x1="295" x2="296" y1="131" y2="131" /><line stroke="rgb(0%,100%,0%)" stroke-dasharray="1 1 9 1" stroke-width="0.03" x1="295" x2="296" y1="132" y2="132" /><line stroke="rgb(0%,100%,0%)" stroke-dasharray="1 1 9 1" stroke-width="0.03" x1="295" x2="296" y1="139" y2="139" /><line stroke="rgb(0%,100%,0%)" stroke-dasharray="1 1 9 1" stroke-width="0.03" x1="295" x2="296" y1="159" y2="159" /><line stroke="rgb(0%,100%,0%)" stroke-dasharray="1 1 9 1" stroke-width="0.03" x1="295" x2="296" y1="179" y2="179" /><line stroke="rgb(0%,100%,0%)" stroke-dasharray="1 1 9 1" stroke-width="0.03" x1="295" x2="296" y1="219" y2="219" /><line stroke="rgb(0%,100%,0%)" stroke-dasharray="1 1 9 1" stroke-width="0.03" x1="296" x2="297" y1="10" y2="10" /><line stroke="rgb(0%,100%,0%)" stroke-dasharray="1 1 9 1" stroke-width="0.03" x1="296" x2="297" y1="50" y2="50" /><line stroke="rgb(0%,100%,0%)" stroke-dasharray="1 1 9 1" stroke-width="0.03" x1="296" x2="297" y1="51" y2="51" /><line stroke="rgb(0%,100%,0%)" stroke-dasharray="1 1 9 1" stroke-width="0.03" x1="296" x2="297" y1="52" y2="52" /><line stroke="rgb(0%,100%,0%)" stroke-dasharray="1 1 9 1" stroke-width="0.03" x1="296" x2="297" y1="130" y2="130" /><line stroke="rgb(0%,100%,0%)" stroke-dasharray="1 1 9 1" stroke-width="0.03" x1="296" x2="297" y1="131" y2="131" /><line stroke="rgb(0%,100%,0%)" stroke-dasharray="1 1 9 1" stroke-width="0.03" x1="296" x2="297" y1="132" y2="132" /><line stroke="rgb(0%,100%,0%)" stroke-dasharray="1 1 9 1" stroke-width="0.03" x1="296" x2="297" y1="139" y2="139" /><line stroke="rgb(0%,100%,0%)" stroke-dasharray="1 1 9 1" stroke-width="0.03" x1="296" x2="297" y1="159" y2="159" /><line stroke="rgb(0%,100%,0%)" stroke-dasharray="1 1 9 1" stroke-width="0.03" x1="296" x2="297" y1="179" y2="179" /><line stroke="rgb(0%,100%,0%)" stroke-dasharray="1 1 9 1" stroke-width="0.03" x1="296" x2="297" y1="219" y2="219" /><line stroke="rgb(0%,100%,0%)" stroke-dasharray="1 1 9 1" stroke-width="0.03" x1="297" x2="364" y1="10" y2="10" /><line stroke="rgb(0%,100%,0%)" stroke-dasharray="1 1 9 1" stroke-width="0.03" x1="297" x2="364" y1="50" y2="50" /><line stroke="rgb(0%,100%,0%)" stroke-dasharray="1 1 9 1" stroke-width="0.03" x1="297" x2="364" y1="51" y2="51" /><line stroke="rgb(0%,100%,0%)" stroke-dasharray="1 1 9 1" stroke-width="0.03" x1="297" x2="364" y1="52" y2="52" /><line stroke="rgb(0%,100%,0%)" stroke-dasharray="1 1 9 1" stroke-width="0.03" x1="297" x2="364" y1="130" y2="130" /><line stroke="rgb(0%,100%,0%)" stroke-dasharray="1 1 9 1" stroke-width="0.03" x1="297" x2="364" y1="131" y2="131" /><line stroke="rgb(0%,100%,0%)" stroke-dasharray="1 1 9 1" stroke-width="0.03" x1="297" x2="364" y1="132" y2="132" /><line stroke="rgb(0%,100%,0%)" stroke-dasharray="1 1 9 1" stroke-width="0.03" x1="297" x2="364" y1="139" y2="139" /><line stroke="rgb(0%,100%,0%)" stroke-dasharray="1 1 9 1" stroke-width="0.03" x1="297" x2="364" y1="159" y2="159" /><line stroke="rgb(0%,100%,0%)" stroke-dasharray="1 1 9 1" stroke-width="0.03" x1="297" x2="364" y1="179" y2="179" /><line stroke="rgb(0%,100%,0%)" stroke-dasharray="1 1 9 1" stroke-width="0.03" x1="297" x2="364" y1="219" y2="219" /><line stroke="rgb(0%,100%,0%)" stroke-dasharray="1 1 9 1" stroke-width="0.03" x1="364" x2="431" y1="10" y2="10" /><line stroke="rgb(0%,100%,0%)" stroke-dasharray="1 1 9 1" stroke-width="0.03" x1="364" x2="431" y1="50" y2="50" /><line stroke="rgb(0%,100%,0%)" stroke-dasharray="1 1 9 1" stroke-width="0.03" x1="364" x2="431" y1="51" y2="51" /><line stroke="rgb(0%,100%,0%)" stroke-dasharray="1 1 9 1" stroke-width="0.03" x1="364" x2="431" y1="52" y2="52" /><line stroke="rgb(0%,100%,0%)" stroke-dasharray="1 1 9 1" stroke-width="0.03" x1="364" x2="431" y1="130" y2="130" /><line stroke="rgb(0%,100%,0%)" stroke-dasharray="1 1 9 1" stroke-width="0.03" x1="364" x2="431" y1="131" y2="131" /><line stroke="rgb(0%,100%,0%)" stroke-dasharray="1 1 9 1" stroke-width="0.03" x1="364" x2="431" y1="132" y2="132" /><line stroke="rgb(0%,100%,0%)" stroke-dasharray="1 1 9 1" stroke-width="0.03" x1="364" x2="431" y1="139" y2="139" /><line stroke="rgb(0%,100%,0%)" stroke-dasharray="1 1 9 1" stroke-width="0.03" x1="364" x2="431" y1="159" y2="159" /><line stroke="rgb(0%,100%,0%)" stroke-dasharray="1 1 9 1" stroke-width="0.03" x1="364" x2="431" y1="179" y2="179" /><line stroke="rgb(0%,100%,0%)" stroke-dasharray="1 1 9 1" stroke-width="0.03" x1="364" x2="431" y1="219" y2="219" /><line stroke="rgb(0%,100%,0%)" stroke-dasharray="1 1 9 1" stroke-width="0.03" x1="431" x2="432" y1="10" y2="10" /><line stroke="rgb(0%,100%,0%)" stroke-dasharray="1 1 9 1" stroke-width="0.03" x1="431" x2="432" y1="50" y2="50" /><line stroke="rgb(0%,100%,0%)" stroke-dasharray="1 1 9 1" stroke-width="0.03" x1="431" x2="432" y1="51" y2="51" /><line stroke="rgb(0%,100%,0%)" stroke-dasharray="1 1 9 1" stroke-width="0.03" x1="431" x2="432" y1="52" y2="52" /><line stroke="rgb(0%,100%,0%)" stroke-dasharray="1 1 9 1" stroke-width="0.03" x1="431" x2="432" y1="130" y2="130" /><line stroke="rgb(0%,100%,0%)" stroke-dasharray="1 1 9 1" stroke-width="0.03" x1="431" x2="432" y1="131" y2="131" /><line stroke="rgb(0%,100%,0%)" stroke-dasharray="1 1 9 1" stroke-width="0.03" x1="431" x2="432" y1="132" y2="132" /><line stroke="rgb(0%,100%,0%)" stroke-dasharray="1 1 9 1" stroke-width="0.03" x1="431" x2="432" y1="139" y2="139" /><line stroke="rgb(0%,100%,0%)" stroke-dasharray="1 1 9 1" stroke-width="0.03" x1="431" x2="432" y1="159" y2="159" /><line stroke="rgb(0%,100%,0%)" stroke-dasharray="1 1 9 1" stroke-width="0.03" x1="431" x2="432" y1="179" y2="179" /><line stroke="rgb(0%,100%,0%)" stroke-dasharray="1 1 9 1" stroke-width="0.03" x1="431" x2="432" y1="219" y2="219" /><line stroke="rgb(0%,100%,0%)" stroke-dasharray="1 1 9 1" stroke-width="0.03" x1="432" x2="433" y1="10" y2="10" /><line stroke="rgb(0%,100%,0%)" stroke-dasharray="1 1 9 1" stroke-width="0.03" x1="432" x2="433" y1="50" y2="50" /><line stroke="rgb(0%,100%,0%)" stroke-dasharray="1 1 9 1" stroke-width="0.03" x1="432" x2="433" y1="51" y2="51" /><line stroke="rgb(0%,100%,0%)" stroke-dasharray="1 1 9 1" stroke-width="0.03" x1="432" x2="433" y1="52" y2="52" /><line stroke="rgb(0%,100%,0%)" stroke-dasharray="1 1 9 1" stroke-width="0.03" x1="432" x2="433" y1="130" y2="130" /><line stroke="rgb(0%,100%,0%)" stroke-dasharray="1 1 9 1" stroke-width="0.03" x1="432" x2="433" y1="131" y2="131" /><line stroke="rgb(0%,100%,0%)" stroke-dasharray="1 1 9 1" stroke-width="0.03" x1="432" x2="433" y1="132" y2="132" /><line stroke="rgb(0%,100%,0%)" stroke-dasharray="1 1 9 1" stroke-width="0.03" x1="432" x2="433" y1="139" y2="139" /><line stroke="rgb(0%,100%,0%)" stroke-dasharray="1 1 9 1" stroke-width="0.03" x1="432" x2="433" y1="159" y2="159" /><line stroke="rgb(0%,100%,0%)" stroke-dasharray="1 1 9 1" stroke-width="0.03" x1="432" x2="433" y1="179" y2="179" /><line stroke="rgb(0%,100%,0%)" stroke-dasharray="1 1 9 1" stroke-width="0.03" x1="432" x2="433" y1="219" y2="219" /><line stroke="rgb(0%,100%,0%)" stroke-dasharray="1 1 9 1" stroke-width="0.03" x1="433" x2="508" y1="10" y2="10" /><line stroke="rgb(0%,100%,0%)" stroke-dasharray="1 1 9 1" stroke-width="0.03" x1="433" x2="508" y1="50" y2="50" /><line stroke="rgb(0%,100%,0%)" stroke-dasharray="1 1 9 1" stroke-width="0.03" x1="433" x2="508" y1="51" y2="51" /><line stroke="rgb(0%,100%,0%)" stroke-dasharray="1 1 9 1" stroke-width="0.03" x1="433" x2="508" y1="52" y2="52" /><line stroke="rgb(0%,100%,0%)" stroke-dasharray="1 1 9 1" stroke-width="0.03" x1="433" x2="508" y1="130" y2="130" /><line stroke="rgb(0%,100%,0%)" stroke-dasharray="1 1 9 1" stroke-width="0.03" x1="433" x2="508" y1="131" y2="131" /><line stroke="rgb(0%,100%,0%)" stroke-dasharray="1 1 9 1" stroke-width="0.03" x1="433" x2="508" y1="132" y2="132" /><line stroke="rgb(0%,100%,0%)" stroke-dasharray="1 1 9 1" stroke-width="0.03" x1="433" x2="508" y1="139" y2="139" /><line stroke="rgb(0%,100%,0%)" stroke-dasharray="1 1 9 1" stroke-width="0.03" x1="433" x2="508" y1="159" y2="159" /><line stroke="rgb(0%,100%,0%)" stroke-dasharray="1 1 9 1" stroke-width="0.03" x1="433" x2="508" y1="179" y2="179" /><line stroke="rgb(0%,100%,0%)" stroke-dasharray="1 1 9 1" stroke-width="0.03" x1="433" x2="508" y1="219" y2="219" /><line stroke="rgb(0%,100%,0%)" stroke-dasharray="1 1 9 1" stroke-width="0.03" x1="10" x2="10" y1="0" y2="10" /><line stroke="rgb(0%,100%,0%)" stroke-dasharray="1 1 9 1" stroke-width="0.03" x1="82" x2="82" y1="0" y2="10" /><line stroke="rgb(0%,100%,0%)" stroke-dasharray="1 1 9 1" stroke-width="0.03" x1="83" x2="83" y1="0" y2="10" /><line stroke="rgb(0%,100%,0%)" stroke-dasharray="1 1 9 1" stroke-width="0.03" x1="84" x2="84" y1="0" y2="10" /><line stroke="rgb(0%,100%,0%)" stroke-dasharray="1 1 9 1" stroke-width="0.03" x1="151" x2="151" y1="0" y2="10" /><line stroke="rgb(0%,100%,0%)" stroke-dasharray="1 1 9 1" stroke-width="0.03" x1="218" x2="218" y1="0" y2="10" /><line stroke="rgb(0%,100%,0%)" stroke-dasharray="1 1 9 1" stroke-width="0.03" x1="219" x2="219" y1="0" y2="10" /><line stroke="rgb(0%,100%,0%)" stroke-dasharray="1 1 9 1" stroke-width="0.03" x1="220" x2="220" y1="0" y2="10" /><line stroke="rgb(0%,100%,0%)" stroke-dasharray="1 1 9 1" stroke-width="0.03" x1="295" x2="295" y1="0" y2="10" /><line stroke="rgb(0%,100%,0%)" stroke-dasharray="1 1 9 1" stroke-width="0.03" x1="296" x2="296" y1="0" y2="10" /><line stroke="rgb(0%,100%,0%)" stroke-dasharray="1 1 9 1" stroke-width="0.03" x1="297" x2="297" y1="0" y2="10" /><line stroke="rgb(0%,100%,0%)" stroke-dasharray="1 1 9 1" stroke-width="0.03" x1="364" x2="364" y1="0" y2="10" /><line stroke="rgb(0%,100%,0%)" stroke-dasharray="1 1 9 1" stroke-width="0.03" x1="431" x2="431" y1="0" y2="10" /><line stroke="rgb(0%,100%,0%)" stroke-dasharray="1 1 9 1" stroke-width="0.03" x1="432" x2="432" y1="0" y2="10" /><line stroke="rgb(0%,100%,0%)" stroke-dasharray="1 1 9 1" stroke-width="0.03" x1="433" x2="433" y1="0" y2="10" /><line stroke="rgb(0%,100%,0%)" stroke-dasharray="1 1 9 1" stroke-width="0.03" x1="508" x2="508" y1="0" y2="10" /><line stroke="rgb(0%,100%,0%)" stroke-dasharray="1 1 9 1" stroke-width="0.03" x1="10" x2="10" y1="10" y2="50" /><line stroke="rgb(0%,100%,0%)" stroke-dasharray="1 1 9 1" stroke-width="0.03" x1="82" x2="82" y1="10" y2="50" /><line stroke="rgb(0%,100%,0%)" stroke-dasharray="1 1 9 1" stroke-width="0.03" x1="83" x2="83" y1="10" y2="50" /><line stroke="rgb(0%,100%,0%)" stroke-dasharray="1 1 9 1" stroke-width="0.03" x1="84" x2="84" y1="10" y2="50" /><line stroke="rgb(0%,100%,0%)" stroke-dasharray="1 1 9 1" stroke-width="0.03" x1="151" x2="151" y1="10" y2="50" /><line stroke="rgb(0%,100%,0%)" stroke-dasharray="1 1 9 1" stroke-width="0.03" x1="218" x2="218" y1="10" y2="50" /><line stroke="rgb(0%,100%,0%)" stroke-dasharray="1 1 9 1" stroke-width="0.03" x1="219" x2="219" y1="10" y2="50" /><line stroke="rgb(0%,100%,0%)" stroke-dasharray="1 1 9 1" stroke-width="0.03" x1="220" x2="220" y1="10" y2="50" /><line stroke="rgb(0%,100%,0%)" stroke-dasharray="1 1 9 1" stroke-width="0.03" x1="295" x2="295" y1="10" y2="50" /><line stroke="rgb(0%,100%,0%)" stroke-dasharray="1 1 9 1" stroke-width="0.03" x1="296" x2="296" y1="10" y2="50" /><line stroke="rgb(0%,100%,0%)" stroke-dasharray="1 1 9 1" stroke-width="0.03" x1="297" x2="297" y1="10" y2="50" /><line stroke="rgb(0%,100%,0%)" stroke-dasharray="1 1 9 1" stroke-width="0.03" x1="364" x2="364" y1="10" y2="50" /><line stroke="rgb(0%,100%,0%)" stroke-dasharray="1 1 9 1" stroke-width="0.03" x1="431" x2="431" y1="10" y2="50" /><line stroke="rgb(0%,100%,0%)" stroke-dasharray="1 1 9 1" stroke-width="0.03" x1="432" x2="432" y1="10" y2="50" /><line stroke="rgb(0%,100%,0%)" stroke-dasharray="1 1 9 1" stroke-width="0.03" x1="433" x2="433" y1="10" y2="50" /><line stroke="rgb(0%,100%,0%)" stroke-dasharray="1 1 9 1" stroke-width="0.03" x1="508" x2="508" y1="10" y2="50" /><line stroke="rgb(0%,100%,0%)" stroke-dasharray="1 1 9 1" stroke-width="0.03" x1="10" x2="10" y1="50" y2="51" /><line stroke="rgb(0%,100%,0%)" stroke-dasharray="1 1 9 1" stroke-width="0.03" x1="82" x2="82" y1="50" y2="51" /><line stroke="rgb(0%,100%,0%)" stroke-dasharray="1 1 9 1" stroke-width="0.03" x1="83" x2="83" y1="50" y2="51" /><line stroke="rgb(0%,100%,0%)" stroke-dasharray="1 1 9 1" stroke-width="0.03" x1="84" x2="84" y1="50" y2="51" /><line stroke="rgb(0%,100%,0%)" stroke-dasharray="1 1 9 1" stroke-width="0.03" x1="151" x2="151" y1="50" y2="51" /><line stroke="rgb(0%,100%,0%)" stroke-dasharray="1 1 9 1" stroke-width="0.03" x1="218" x2="218" y1="50" y2="51" /><line stroke="rgb(0%,100%,0%)" stroke-dasharray="1 1 9 1" stroke-width="0.03" x1="219" x2="219" y1="50" y2="51" /><line stroke="rgb(0%,100%,0%)" stroke-dasharray="1 1 9 1" stroke-width="0.03" x1="220" x2="220" y1="50" y2="51" /><line stroke="rgb(0%,100%,0%)" stroke-dasharray="1 1 9 1" stroke-width="0.03" x1="295" x2="295" y1="50" y2="51" /><line stroke="rgb(0%,100%,0%)" stroke-dasharray="1 1 9 1" stroke-width="0.03" x1="296" x2="296" y1="50" y2="51" /><line stroke="rgb(0%,100%,0%)" stroke-dasharray="1 1 9 1" stroke-width="0.03" x1="297" x2="297" y1="50" y2="51" /><line stroke="rgb(0%,100%,0%)" stroke-dasharray="1 1 9 1" stroke-width="0.03" x1="364" x2="364" y1="50" y2="51" /><line stroke="rgb(0%,100%,0%)" stroke-dasharray="1 1 9 1" stroke-width="0.03" x1="431" x2="431" y1="50" y2="51" /><line stroke="rgb(0%,100%,0%)" stroke-dasharray="1 1 9 1" stroke-width="0.03" x1="432" x2="432" y1="50" y2="51" /><line stroke="rgb(0%,100%,0%)" stroke-dasharray="1 1 9 1" stroke-width="0.03" x1="433" x2="433" y1="50" y2="51" /><line stroke="rgb(0%,100%,0%)" stroke-dasharray="1 1 9 1" stroke-width="0.03" x1="508" x2="508" y1="50" y2="51" /><line stroke="rgb(0%,100%,0%)" stroke-dasharray="1 1 9 1" stroke-width="0.03" x1="10" x2="10" y1="51" y2="52" /><line stroke="rgb(0%,100%,0%)" stroke-dasharray="1 1 9 1" stroke-width="0.03" x1="82" x2="82" y1="51" y2="52" /><line stroke="rgb(0%,100%,0%)" stroke-dasharray="1 1 9 1" stroke-width="0.03" x1="83" x2="83" y1="51" y2="52" /><line stroke="rgb(0%,100%,0%)" stroke-dasharray="1 1 9 1" stroke-width="0.03" x1="84" x2="84" y1="51" y2="52" /><line stroke="rgb(0%,100%,0%)" stroke-dasharray="1 1 9 1" stroke-width="0.03" x1="151" x2="151" y1="51" y2="52" /><line stroke="rgb(0%,100%,0%)" stroke-dasharray="1 1 9 1" stroke-width="0.03" x1="218" x2="218" y1="51" y2="52" /><line stroke="rgb(0%,100%,0%)" stroke-dasharray="1 1 9 1" stroke-width="0.03" x1="219" x2="219" y1="51" y2="52" /><line stroke="rgb(0%,100%,0%)" stroke-dasharray="1 1 9 1" stroke-width="0.03" x1="220" x2="220" y1="51" y2="52" /><line stroke="rgb(0%,100%,0%)" stroke-dasharray="1 1 9 1" stroke-width="0.03" x1="295" x2="295" y1="51" y2="52" /><line stroke="rgb(0%,100%,0%)" stroke-dasharray="1 1 9 1" stroke-width="0.03" x1="296" x2="296" y1="51" y2="52" /><line stroke="rgb(0%,100%,0%)" stroke-dasharray="1 1 9 1" stroke-width="0.03" x1="297" x2="297" y1="51" y2="52" /><line stroke="rgb(0%,100%,0%)" stroke-dasharray="1 1 9 1" stroke-width="0.03" x1="364" x2="364" y1="51" y2="52" /><line stroke="rgb(0%,100%,0%)" stroke-dasharray="1 1 9 1" stroke-width="0.03" x1="431" x2="431" y1="51" y2="52" /><line stroke="rgb(0%,100%,0%)" stroke-dasharray="1 1 9 1" stroke-width="0.03" x1="432" x2="432" y1="51" y2="52" /><line stroke="rgb(0%,100%,0%)" stroke-dasharray="1 1 9 1" stroke-width="0.03" x1="433" x2="433" y1="51" y2="52" /><line stroke="rgb(0%,100%,0%)" stroke-dasharray="1 1 9 1" stroke-width="0.03" x1="508" x2="508" y1="51" y2="52" /><line stroke="rgb(0%,100%,0%)" stroke-dasharray="1 1 9 1" stroke-width="0.03" x1="10" x2="10" y1="52" y2="130" /><line stroke="rgb(0%,100%,0%)" stroke-dasharray="1 1 9 1" stroke-width="0.03" x1="82" x2="82" y1="52" y2="130" /><line stroke="rgb(0%,100%,0%)" stroke-dasharray="1 1 9 1" stroke-width="0.03" x1="83" x2="83" y1="52" y2="130" /><line stroke="rgb(0%,100%,0%)" stroke-dasharray="1 1 9 1" stroke-width="0.03" x1="84" x2="84" y1="52" y2="130" /><line stroke="rgb(0%,100%,0%)" stroke-dasharray="1 1 9 1" stroke-width="0.03" x1="151" x2="151" y1="52" y2="130" /><line stroke="rgb(0%,100%,0%)" stroke-dasharray="1 1 9 1" stroke-width="0.03" x1="218" x2="218" y1="52" y2="130" /><line stroke="rgb(0%,100%,0%)" stroke-dasharray="1 1 9 1" stroke-width="0.03" x1="219" x2="219" y1="52" y2="130" /><line stroke="rgb(0%,100%,0%)" stroke-dasharray="1 1 9 1" stroke-width="0.03" x1="220" x2="220" y1="52" y2="130" /><line stroke="rgb(0%,100%,0%)" stroke-dasharray="1 1 9 1" stroke-width="0.03" x1="295" x2="295" y1="52" y2="130" /><line stroke="rgb(0%,100%,0%)" stroke-dasharray="1 1 9 1" stroke-width="0.03" x1="296" x2="296" y1="52" y2="130" /><line stroke="rgb(0%,100%,0%)" stroke-dasharray="1 1 9 1" stroke-width="0.03" x1="297" x2="297" y1="52" y2="130" /><line stroke="rgb(0%,100%,0%)" stroke-dasharray="1 1 9 1" stroke-width="0.03" x1="364" x2="364" y1="52" y2="130" /><line stroke="rgb(0%,100%,0%)" stroke-dasharray="1 1 9 1" stroke-width="0.03" x1="431" x2="431" y1="52" y2="130" /><line stroke="rgb(0%,100%,0%)" stroke-dasharray="1 1 9 1" stroke-width="0.03" x1="432" x2="432" y1="52" y2="130" /><line stroke="rgb(0%,100%,0%)" stroke-dasharray="1 1 9 1" stroke-width="0.03" x1="433" x2="433" y1="52" y2="130" /><line stroke="rgb(0%,100%,0%)" stroke-dasharray="1 1 9 1" stroke-width="0.03" x1="508" x2="508" y1="52" y2="130" /><line stroke="rgb(0%,100%,0%)" stroke-dasharray="1 1 9 1" stroke-width="0.03" x1="10" x2="10" y1="130" y2="131" /><line stroke="rgb(0%,100%,0%)" stroke-dasharray="1 1 9 1" stroke-width="0.03" x1="82" x2="82" y1="130" y2="131" /><line stroke="rgb(0%,100%,0%)" stroke-dasharray="1 1 9 1" stroke-width="0.03" x1="83" x2="83" y1="130" y2="131" /><line stroke="rgb(0%,100%,0%)" stroke-dasharray="1 1 9 1" stroke-width="0.03" x1="84" x2="84" y1="130" y2="131" /><line stroke="rgb(0%,100%,0%)" stroke-dasharray="1 1 9 1" stroke-width="0.03" x1="151" x2="151" y1="130" y2="131" /><line stroke="rgb(0%,100%,0%)" stroke-dasharray="1 1 9 1" stroke-width="0.03" x1="218" x2="218" y1="130" y2="131" /><line stroke="rgb(0%,100%,0%)" stroke-dasharray="1 1 9 1" stroke-width="0.03" x1="219" x2="219" y1="130" y2="131" /><line stroke="rgb(0%,100%,0%)" stroke-dasharray="1 1 9 1" stroke-width="0.03" x1="220" x2="220" y1="130" y2="131" /><line stroke="rgb(0%,100%,0%)" stroke-dasharray="1 1 9 1" stroke-width="0.03" x1="295" x2="295" y1="130" y2="131" /><line stroke="rgb(0%,100%,0%)" stroke-dasharray="1 1 9 1" stroke-width="0.03" x1="296" x2="296" y1="130" y2="131" /><line stroke="rgb(0%,100%,0%)" stroke-dasharray="1 1 9 1" stroke-width="0.03" x1="297" x2="297" y1="130" y2="131" /><line stroke="rgb(0%,100%,0%)" stroke-dasharray="1 1 9 1" stroke-width="0.03" x1="364" x2="364" y1="130" y2="131" /><line stroke="rgb(0%,100%,0%)" stroke-dasharray="1 1 9 1" stroke-width="0.03" x1="431" x2="431" y1="130" y2="131" /><line stroke="rgb(0%,100%,0%)" stroke-dasharray="1 1 9 1" stroke-width="0.03" x1="432" x2="432" y1="130" y2="131" /><line stroke="rgb(0%,100%,0%)" stroke-dasharray="1 1 9 1" stroke-width="0.03" x1="433" x2="433" y1="130" y2="131" /><line stroke="rgb(0%,100%,0%)" stroke-dasharray="1 1 9 1" stroke-width="0.03" x1="508" x2="508" y1="130" y2="131" /><line stroke="rgb(0%,100%,0%)" stroke-dasharray="1 1 9 1" stroke-width="0.03" x1="10" x2="10" y1="131" y2="132" /><line stroke="rgb(0%,100%,0%)" stroke-dasharray="1 1 9 1" stroke-width="0.03" x1="82" x2="82" y1="131" y2="132" /><line stroke="rgb(0%,100%,0%)" stroke-dasharray="1 1 9 1" stroke-width="0.03" x1="83" x2="83" y1="131" y2="132" /><line stroke="rgb(0%,100%,0%)" stroke-dasharray="1 1 9 1" stroke-width="0.03" x1="84" x2="84" y1="131" y2="132" /><line stroke="rgb(0%,100%,0%)" stroke-dasharray="1 1 9 1" stroke-width="0.03" x1="151" x2="151" y1="131" y2="132" /><line stroke="rgb(0%,100%,0%)" stroke-dasharray="1 1 9 1" stroke-width="0.03" x1="218" x2="218" y1="131" y2="132" /><line stroke="rgb(0%,100%,0%)" stroke-dasharray="1 1 9 1" stroke-width="0.03" x1="219" x2="219" y1="131" y2="132" /><line stroke="rgb(0%,100%,0%)" stroke-dasharray="1 1 9 1" stroke-width="0.03" x1="220" x2="220" y1="131" y2="132" /><line stroke="rgb(0%,100%,0%)" stroke-dasharray="1 1 9 1" stroke-width="0.03" x1="295" x2="295" y1="131" y2="132" /><line stroke="rgb(0%,100%,0%)" stroke-dasharray="1 1 9 1" stroke-width="0.03" x1="296" x2="296" y1="131" y2="132" /><line stroke="rgb(0%,100%,0%)" stroke-dasharray="1 1 9 1" stroke-width="0.03" x1="297" x2="297" y1="131" y2="132" /><line stroke="rgb(0%,100%,0%)" stroke-dasharray="1 1 9 1" stroke-width="0.03" x1="364" x2="364" y1="131" y2="132" /><line stroke="rgb(0%,100%,0%)" stroke-dasharray="1 1 9 1" stroke-width="0.03" x1="431" x2="431" y1="131" y2="132" /><line stroke="rgb(0%,100%,0%)" stroke-dasharray="1 1 9 1" stroke-width="0.03" x1="432" x2="432" y1="131" y2="132" /><line stroke="rgb(0%,100%,0%)" stroke-dasharray="1 1 9 1" stroke-width="0.03" x1="433" x2="433" y1="131" y2="132" /><line stroke="rgb(0%,100%,0%)" stroke-dasharray="1 1 9 1" stroke-width="0.03" x1="508" x2="508" y1="131" y2="132" /><line stroke="rgb(0%,100%,0%)" stroke-dasharray="1 1 9 1" stroke-width="0.03" x1="10" x2="10" y1="132" y2="139" /><line stroke="rgb(0%,100%,0%)" stroke-dasharray="1 1 9 1" stroke-width="0.03" x1="82" x2="82" y1="132" y2="139" /><line stroke="rgb(0%,100%,0%)" stroke-dasharray="1 1 9 1" stroke-width="0.03" x1="83" x2="83" y1="132" y2="139" /><line stroke="rgb(0%,100%,0%)" stroke-dasharray="1 1 9 1" stroke-width="0.03" x1="84" x2="84" y1="132" y2="139" /><line stroke="rgb(0%,100%,0%)" stroke-dasharray="1 1 9 1" stroke-width="0.03" x1="151" x2="151" y1="132" y2="139" /><line stroke="rgb(0%,100%,0%)" stroke-dasharray="1 1 9 1" stroke-width="0.03" x1="218" x2="218" y1="132" y2="139" /><line stroke="rgb(0%,100%,0%)" stroke-dasharray="1 1 9 1" stroke-width="0.03" x1="219" x2="219" y1="132" y2="139" /><line stroke="rgb(0%,100%,0%)" stroke-dasharray="1 1 9 1" stroke-width="0.03" x1="220" x2="220" y1="132" y2="139" /><line stroke="rgb(0%,100%,0%)" stroke-dasharray="1 1 9 1" stroke-width="0.03" x1="295" x2="295" y1="132" y2="139" /><line stroke="rgb(0%,100%,0%)" stroke-dasharray="1 1 9 1" stroke-width="0.03" x1="296" x2="296" y1="132" y2="139" /><line stroke="rgb(0%,100%,0%)" stroke-dasharray="1 1 9 1" stroke-width="0.03" x1="297" x2="297" y1="132" y2="139" /><line stroke="rgb(0%,100%,0%)" stroke-dasharray="1 1 9 1" stroke-width="0.03" x1="364" x2="364" y1="132" y2="139" /><line stroke="rgb(0%,100%,0%)" stroke-dasharray="1 1 9 1" stroke-width="0.03" x1="431" x2="431" y1="132" y2="139" /><line stroke="rgb(0%,100%,0%)" stroke-dasharray="1 1 9 1" stroke-width="0.03" x1="432" x2="432" y1="132" y2="139" /><line stroke="rgb(0%,100%,0%)" stroke-dasharray="1 1 9 1" stroke-width="0.03" x1="433" x2="433" y1="132" y2="139" /><line stroke="rgb(0%,100%,0%)" stroke-dasharray="1 1 9 1" stroke-width="0.03" x1="508" x2="508" y1="132" y2="139" /><line stroke="rgb(0%,100%,0%)" stroke-dasharray="1 1 9 1" stroke-width="0.03" x1="10" x2="10" y1="139" y2="159" /><line stroke="rgb(0%,100%,0%)" stroke-dasharray="1 1 9 1" stroke-width="0.03" x1="82" x2="82" y1="139" y2="159" /><line stroke="rgb(0%,100%,0%)" stroke-dasharray="1 1 9 1" stroke-width="0.03" x1="83" x2="83" y1="139" y2="159" /><line stroke="rgb(0%,100%,0%)" stroke-dasharray="1 1 9 1" stroke-width="0.03" x1="84" x2="84" y1="139" y2="159" /><line stroke="rgb(0%,100%,0%)" stroke-dasharray="1 1 9 1" stroke-width="0.03" x1="151" x2="151" y1="139" y2="159" /><line stroke="rgb(0%,100%,0%)" stroke-dasharray="1 1 9 1" stroke-width="0.03" x1="218" x2="218" y1="139" y2="159" /><line stroke="rgb(0%,100%,0%)" stroke-dasharray="1 1 9 1" stroke-width="0.03" x1="219" x2="219" y1="139" y2="159" /><line stroke="rgb(0%,100%,0%)" stroke-dasharray="1 1 9 1" stroke-width="0.03" x1="220" x2="220" y1="139" y2="159" /><line stroke="rgb(0%,100%,0%)" stroke-dasharray="1 1 9 1" stroke-width="0.03" x1="295" x2="295" y1="139" y2="159" /><line stroke="rgb(0%,100%,0%)" stroke-dasharray="1 1 9 1" stroke-width="0.03" x1="296" x2="296" y1="139" y2="159" /><line stroke="rgb(0%,100%,0%)" stroke-dasharray="1 1 9 1" stroke-width="0.03" x1="297" x2="297" y1="139" y2="159" /><line stroke="rgb(0%,100%,0%)" stroke-dasharray="1 1 9 1" stroke-width="0.03" x1="364" x2="364" y1="139" y2="159" /><line stroke="rgb(0%,100%,0%)" stroke-dasharray="1 1 9 1" stroke-width="0.03" x1="431" x2="431" y1="139" y2="159" /><line stroke="rgb(0%,100%,0%)" stroke-dasharray="1 1 9 1" stroke-width="0.03" x1="432" x2="432" y1="139" y2="159" /><line stroke="rgb(0%,100%,0%)" stroke-dasharray="1 1 9 1" stroke-width="0.03" x1="433" x2="433" y1="139" y2="159" /><line stroke="rgb(0%,100%,0%)" stroke-dasharray="1 1 9 1" stroke-width="0.03" x1="508" x2="508" y1="139" y2="159" /><line stroke="rgb(0%,100%,0%)" stroke-dasharray="1 1 9 1" stroke-width="0.03" x1="10" x2="10" y1="159" y2="179" /><line stroke="rgb(0%,100%,0%)" stroke-dasharray="1 1 9 1" stroke-width="0.03" x1="82" x2="82" y1="159" y2="179" /><line stroke="rgb(0%,100%,0%)" stroke-dasharray="1 1 9 1" stroke-width="0.03" x1="83" x2="83" y1="159" y2="179" /><line stroke="rgb(0%,100%,0%)" stroke-dasharray="1 1 9 1" stroke-width="0.03" x1="84" x2="84" y1="159" y2="179" /><line stroke="rgb(0%,100%,0%)" stroke-dasharray="1 1 9 1" stroke-width="0.03" x1="151" x2="151" y1="159" y2="179" /><line stroke="rgb(0%,100%,0%)" stroke-dasharray="1 1 9 1" stroke-width="0.03" x1="218" x2="218" y1="159" y2="179" /><line stroke="rgb(0%,100%,0%)" stroke-dasharray="1 1 9 1" stroke-width="0.03" x1="219" x2="219" y1="159" y2="179" /><line stroke="rgb(0%,100%,0%)" stroke-dasharray="1 1 9 1" stroke-width="0.03" x1="220" x2="220" y1="159" y2="179" /><line stroke="rgb(0%,100%,0%)" stroke-dasharray="1 1 9 1" stroke-width="0.03" x1="295" x2="295" y1="159" y2="179" /><line stroke="rgb(0%,100%,0%)" stroke-dasharray="1 1 9 1" stroke-width="0.03" x1="296" x2="296" y1="159" y2="179" /><line stroke="rgb(0%,100%,0%)" stroke-dasharray="1 1 9 1" stroke-width="0.03" x1="297" x2="297" y1="159" y2="179" /><line stroke="rgb(0%,100%,0%)" stroke-dasharray="1 1 9 1" stroke-width="0.03" x1="364" x2="364" y1="159" y2="179" /><line stroke="rgb(0%,100%,0%)" stroke-dasharray="1 1 9 1" stroke-width="0.03" x1="431" x2="431" y1="159" y2="179" /><line stroke="rgb(0%,100%,0%)" stroke-dasharray="1 1 9 1" stroke-width="0.03" x1="432" x2="432" y1="159" y2="179" /><line stroke="rgb(0%,100%,0%)" stroke-dasharray="1 1 9 1" stroke-width="0.03" x1="433" x2="433" y1="159" y2="179" /><line stroke="rgb(0%,100%,0%)" stroke-dasharray="1 1 9 1" stroke-width="0.03" x1="508" x2="508" y1="159" y2="179" /><line stroke="rgb(0%,100%,0%)" stroke-dasharray="1 1 9 1" stroke-width="0.03" x1="10" x2="10" y1="179" y2="219" /><line stroke="rgb(0%,100%,0%)" stroke-dasharray="1 1 9 1" stroke-width="0.03" x1="82" x2="82" y1="179" y2="219" /><line stroke="rgb(0%,100%,0%)" stroke-dasharray="1 1 9 1" stroke-width="0.03" x1="83" x2="83" y1="179" y2="219" /><line stroke="rgb(0%,100%,0%)" stroke-dasharray="1 1 9 1" stroke-width="0.03" x1="84" x2="84" y1="179" y2="219" /><line stroke="rgb(0%,100%,0%)" stroke-dasharray="1 1 9 1" stroke-width="0.03" x1="151" x2="151" y1="179" y2="219" /><line stroke="rgb(0%,100%,0%)" stroke-dasharray="1 1 9 1" stroke-width="0.03" x1="218" x2="218" y1="179" y2="219" /><line stroke="rgb(0%,100%,0%)" stroke-dasharray="1 1 9 1" stroke-width="0.03" x1="219" x2="219" y1="179" y2="219" /><line stroke="rgb(0%,100%,0%)" stroke-dasharray="1 1 9 1" stroke-width="0.03" x1="220" x2="220" y1="179" y2="219" /><line stroke="rgb(0%,100%,0%)" stroke-dasharray="1 1 9 1" stroke-width="0.03" x1="295" x2="295" y1="179" y2="219" /><line stroke="rgb(0%,100%,0%)" stroke-dasharray="1 1 9 1" stroke-width="0.03" x1="296" x2="296" y1="179" y2="219" /><line stroke="rgb(0%,100%,0%)" stroke-dasharray="1 1 9 1" stroke-width="0.03" x1="297" x2="297" y1="179" y2="219" /><line stroke="rgb(0%,100%,0%)" stroke-dasharray="1 1 9 1" stroke-width="0.03" x1="364" x2="364" y1="179" y2="219" /><line stroke="rgb(0%,100%,0%)" stroke-dasharray="1 1 9 1" stroke-width="0.03" x1="431" x2="431" y1="179" y2="219" /><line stroke="rgb(0%,100%,0%)" stroke-dasharray="1 1 9 1" stroke-width="0.03" x1="432" x2="432" y1="179" y2="219" /><line stroke="rgb(0%,100%,0%)" stroke-dasharray="1 1 9 1" stroke-width="0.03" x1="433" x2="433" y1="179" y2="219" /><line stroke="rgb(0%,100%,0%)" stroke-dasharray="1 1 9 1" stroke-width="0.03" x1="508" x2="508" y1="179" y2="219" /><line stroke="rgb(0%,0%,0%)" stroke-width="0.05" x1="10" x2="10" y1="139" y2="219" /><line stroke="rgb(0%,0%,0%)" stroke-width="0.05" x1="84" x2="84" y1="139" y2="10" /><line stroke="rgb(0%,0%,0%)" stroke-width="0.05" x1="218" x2="218" y1="139" y2="10" /><line stroke="rgb(0%,0%,0%)" stroke-width="0.05" x1="508" x2="508" y1="139" y2="219" /><line stroke="rgb(0%,0%,0%)" stroke-width="0.05" x1="10" x2="84" y1="139" y2="139" /><line stroke="rgb(0%,0%,0%)" stroke-width="0.05" x1="84" x2="218" y1="10" y2="10" /><line stroke="rgb(0%,0%,0%)" stroke-width="0.05" x1="218" x2="508" y1="139" y2="139" /><line stroke="rgb(0%,0%,0%)" stroke-width="0.05" x1="10" x2="84" y1="219" y2="219" /><line stroke="rgb(0%,0%,0%)" stroke-width="0.05" x1="84" x2="218" y1="219" y2="219" /><line stroke="rgb(0%,0%,0%)" stroke-width="0.05" x1="218" x2="297" y1="219" y2="219" /><line stroke="rgb(0%,0%,0%)" stroke-width="0.05" x1="297" x2="431" y1="219" y2="219" /><line stroke="rgb(0%,0%,0%)" stroke-width="0.05" x1="431" x2="508" y1="219" y2="219" /><rect fill="white" height="3" stroke="rgb(0%,0%,0%)" stroke-width="0.05" width="20" x="37.0" y="177.5" /><rect fill="white" height="3" stroke="rgb(0%,0%,0%)" stroke-width="0.05" width="20" x="107.5" y="177.5" /><rect fill="white" height="3" stroke="rgb(0%,0%,0%)" stroke-width="0.05" width="20" x="174.5" y="177.5" /><rect fill="white" height="3" stroke="rgb(0%,0%,0%)" stroke-width="0.05" width="20" x="247.5" y="177.5" /><rect fill="white" height="3" stroke="rgb(0%,0%,0%)" stroke-width="0.05" width="20" x="320.5" y="177.5" /><rect fill="white" height="3" stroke="rgb(0%,0%,0%)" stroke-width="0.05" width="20" x="387.5" y="177.5" /><rect fill="white" height="3" stroke="rgb(0%,0%,0%)" stroke-width="0.05" width="20" x="459.5" y="177.5" /><rect fill="white" height="10.0" stroke="rgb(0%,0%,0%)" stroke-width="0.05" width="3" x="149.5" y="144.0" /><rect fill="white" height="20" stroke="rgb(0%,0%,0%)" stroke-width="0.05" width="3" x="362.5" y="149.0" /><line stroke="rgb(100%,0%,0%)" stroke-width="0.05" x1="84" x2="218" y1="131" y2="131" /><line stroke="rgb(100%,0%,0%)" stroke-width="0.05" x1="84" x2="218" y1="51" y2="51" /><line stroke="rgb(100%,0%,0%)" stroke-width="0.05" x1="83" x2="83" y1="219" y2="139" /><line stroke="rgb(100%,0%,0%)" stroke-width="0.05" x1="219" x2="219" y1="219" y2="139" /><line stroke="rgb(100%,0%,0%)" stroke-width="0.05" x1="296" x2="296" y1="219" y2="139" /><line stroke="rgb(100%,0%,0%)" stroke-width="0.05" x1="432" x2="432" y1="219" y2="139" /><line stroke="rgb(0%,0%,0%)" stroke-width="0.05" x1="297" x2="320.5" y1="130" y2="130" /><line stroke="rgb(0%,0%,0%)" stroke-width="0.05" x1="320.5" x2="320.5" y1="130" y2="133" /><line stroke="rgb(0%,0%,0%)" stroke-width="0.05" x1="320.5" x2="340.5" y1="133" y2="133" /><line stroke="rgb(0%,0%,0%)" stroke-width="0.05" x1="340.5" x2="340.5" y1="133" y2="130" /><line stroke="rgb(0%,0%,0%)" stroke-width="0.05" x1="340.5" x2="364" y1="130" y2="130" /><line stroke="rgb(0%,0%,0%)" stroke-width="0.05" x1="364" x2="387.5" y1="130" y2="130" /><line stroke="rgb(0%,0%,0%)" stroke-width="0.05" x1="387.5" x2="387.5" y1="130" y2="133" /><line stroke="rgb(0%,0%,0%)" stroke-width="0.05" x1="387.5" x2="407.5" y1="133" y2="133" /><line stroke="rgb(0%,0%,0%)" stroke-width="0.05" x1="407.5" x2="407.5" y1="133" y2="130" /><line stroke="rgb(0%,0%,0%)" stroke-width="0.05" x1="407.5" x2="431" y1="130" y2="130" /><line stroke="rgb(0%,0%,0%)" stroke-width="0.05" x1="297" x2="320.5" y1="52" y2="52" /><line stroke="rgb(0%,0%,0%)" stroke-width="0.05" x1="320.5" x2="320.5" y1="52" y2="49" /><line stroke="rgb(0%,0%,0%)" stroke-width="0.05" x1="320.5" x2="340.5" y1="49" y2="49" /><line stroke="rgb(0%,0%,0%)" stroke-width="0.05" x1="340.5" x2="340.5" y1="49" y2="52" /><line stroke="rgb(0%,0%,0%)" stroke-width="0.05" x1="340.5" x2="364" y1="52" y2="52" /><line stroke="rgb(0%,0%,0%)" stroke-width="0.05" x1="364" x2="387.5" y1="52" y2="52" /><line stroke="rgb(0%,0%,0%)" stroke-width="0.05" x1="387.5" x2="387.5" y1="52" y2="49" /><line stroke="rgb(0%,0%,0%)" stroke-width="0.05" x1="387.5" x2="407.5" y1="49" y2="49" /><line stroke="rgb(0%,0%,0%)" stroke-width="0.05" x1="407.5" x2="407.5" y1="49" y2="52" /><line stroke="rgb(0%,0%,0%)" stroke-width="0.05" x1="407.5" x2="431" y1="52" y2="52" /><line stroke="rgb(0%,0%,0%)" stroke-width="0.05" x1="297" x2="297" y1="52" y2="81.0" /><line stroke="rgb(0%,0%,0%)" stroke-width="0.05" x1="297" x2="294" y1="81.0" y2="81.0" /><line stroke="rgb(0%,0%,0%)" stroke-width="0.05" x1="294" x2="294" y1="81.0" y2="101.0" /><line stroke="rgb(0%,0%,0%)" stroke-width="0.05" x1="294" x2="297" y1="101.0" y2="101.0" /><line stroke="rgb(0%,0%,0%)" stroke-width="0.05" x1="297" x2="297" y1="101.0" y2="130" /><line stroke="rgb(0%,0%,0%)" stroke-width="0.05" x1="431" x2="431" y1="52" y2="81.0" /><line stroke="rgb(0%,0%,0%)" stroke-width="0.05" x1="431" x2="434" y1="81.0" y2="81.0" /><line stroke="rgb(0%,0%,0%)" stroke-width="0.05" x1="434" x2="434" y1="81.0" y2="101.0" /><line stroke="rgb(0%,0%,0%)" stroke-width="0.05" x1="434" x2="431" y1="101.0" y2="101.0" /><line stroke="rgb(0%,0%,0%)" stroke-width="0.05" x1="431" x2="431" y1="101.0" y2="130" /></svg>